<svg width="1600" height="800" viewBox="0 0 1600 800" fill="none" xmlns="http://www.w3.org/2000/svg">
<mask id="mask0_686_3" style="mask-type:luminance" maskUnits="userSpaceOnUse" x="0" y="0" width="1600" height="800">
<path d="M0 1.26362e-05H1600V800H0V1.26362e-05Z" fill="white"/>
</mask>
<g mask="url(#mask0_686_3)">
<path d="M1574.84 701.99C1575.3 701.99 1575.76 702.011 1576.23 702.015V99.9752C1575.76 99.9792 1575.3 100 1574.84 100C1513.18 100 1463.19 64.1384 1463.19 19.9006C1463.19 17.8896 1463.32 15.9036 1463.53 13.9304H141.038C141.241 15.9036 141.379 17.8896 141.379 19.9006C141.379 64.1384 91.3896 100 29.7256 100C29.0281 100 28.3403 99.9712 27.6455 99.9623V702.003C27.878 702.002 28.1063 701.99 28.3388 701.99C90.0027 701.99 139.992 737.852 139.992 782.09C139.992 783.425 139.941 784.751 139.852 786.07H1463.33C1463.24 784.751 1463.19 783.425 1463.19 782.09C1463.19 737.852 1513.18 701.99 1574.84 701.99Z" stroke="#994D22" stroke-width="2.5" stroke-miterlimit="10"/>
<path d="M1542.09 759.702H61.7803V40.2988H1542.09V759.702Z" stroke="#994D22" stroke-width="2.5" stroke-miterlimit="10"/>
</g>
</svg>
