<svg width="1680" height="800" viewBox="0 0 1680 800" fill="none" xmlns="http://www.w3.org/2000/svg">
<mask id="mask0_710_61" style="mask-type:luminance" maskUnits="userSpaceOnUse" x="0" y="0" width="1680" height="800">
<path d="M0 1.26362e-05H1680V800H0V1.26362e-05Z" fill="white"/>
</mask>
<g mask="url(#mask0_710_61)">
<path d="M1653.58 701.99C1654.07 701.99 1654.55 702.011 1655.04 702.015V99.9752C1654.55 99.9792 1654.07 100 1653.58 100C1588.83 100 1536.34 64.1384 1536.34 19.9006C1536.34 17.8897 1536.49 15.9036 1536.7 13.9305H148.088C148.302 15.9036 148.446 17.8897 148.446 19.9006C148.446 64.1384 95.9576 100 31.2105 100C30.4781 100 29.7559 99.9713 29.0264 99.9623V702.003C29.2705 702.002 29.5102 701.99 29.7543 701.99C94.5014 701.99 146.99 737.852 146.99 782.09C146.99 783.425 146.937 784.751 146.843 786.07H1536.49C1536.4 784.751 1536.34 783.425 1536.34 782.09C1536.34 737.852 1588.83 701.99 1653.58 701.99Z" stroke="#994D22" stroke-width="4" stroke-miterlimit="10"/>
<path d="M1619.19 759.702H64.8682V40.2988H1619.19V759.702Z" stroke="#994D22" stroke-width="4" stroke-miterlimit="10"/>
</g>
</svg>
