<svg width="1161" height="443" viewBox="0 0 1161 443" fill="none" xmlns="http://www.w3.org/2000/svg">
<mask id="mask0_630_13" style="mask-type:luminance" maskUnits="userSpaceOnUse" x="0" y="0" width="1161" height="443">
<path d="M0 -2.16961e-05H1161V443H0V-2.16961e-05Z" fill="white"/>
</mask>
<g mask="url(#mask0_630_13)">
<path d="M1142.74 388.727C1143.08 388.727 1143.41 388.739 1143.75 388.741V55.3613C1143.41 55.3635 1143.08 55.375 1142.74 55.375C1098 55.375 1061.72 35.5166 1061.72 11.0199C1061.72 9.90638 1061.82 8.8066 1061.97 7.71397H102.34C102.488 8.8066 102.587 9.90638 102.587 11.0199C102.587 35.5166 66.3138 55.375 21.5689 55.375C21.0628 55.375 20.5637 55.3591 20.0596 55.3541V388.734C20.2283 388.734 20.3939 388.727 20.5626 388.727C65.3075 388.727 101.581 408.585 101.581 433.082C101.581 433.822 101.544 434.556 101.479 435.286H1061.82C1061.76 434.556 1061.72 433.822 1061.72 433.082C1061.72 408.585 1098 388.727 1142.74 388.727Z" stroke="#994D22" stroke-width="4" stroke-miterlimit="10"/>
<path d="M1118.98 420.685H44.8291V22.3154H1118.98V420.685Z" stroke="#994D22" stroke-width="4" stroke-miterlimit="10"/>
</g>
</svg>
