<svg width="1807" height="828" viewBox="0 0 1807 828" fill="none" xmlns="http://www.w3.org/2000/svg">
<mask id="mask0_686_3" style="mask-type:luminance" maskUnits="userSpaceOnUse" x="0" y="0" width="1807" height="828">
<path d="M0 2.00272e-05H1807V828H0V2.00272e-05Z" fill="white"/>
</mask>
<g mask="url(#mask0_686_3)">
<path d="M1778.58 726.56C1779.11 726.56 1779.63 726.581 1780.15 726.585V103.474C1779.63 103.478 1779.11 103.5 1778.58 103.5C1708.94 103.5 1652.48 66.383 1652.48 20.5969C1652.48 18.5156 1652.64 16.46 1652.87 14.4178H159.283C159.513 16.46 159.668 18.5156 159.668 20.5969C159.668 66.383 103.212 103.5 33.5699 103.5C32.7822 103.5 32.0053 103.47 31.2207 103.461V726.573C31.4833 726.572 31.7411 726.56 32.0036 726.56C101.645 726.56 158.102 763.676 158.102 809.463C158.102 810.845 158.045 812.217 157.944 813.582H1652.64C1652.54 812.217 1652.48 810.845 1652.48 809.463C1652.48 763.676 1708.94 726.56 1778.58 726.56Z" stroke="#994D22" stroke-width="2" stroke-miterlimit="10"/>
<path d="M1741.6 786.291H69.7725V41.709H1741.6V786.291Z" stroke="#994D22" stroke-width="2" stroke-miterlimit="10"/>
</g>
</svg>
