<?xml version="1.0" encoding="utf-8"?>
<!-- Generator: Adobe Illustrator 24.0.1, SVG Export Plug-In . SVG Version: 6.00 Build 0)  -->
<svg version="1.1" xmlns="http://www.w3.org/2000/svg" xmlns:xlink="http://www.w3.org/1999/xlink" x="0px" y="0px"
	 viewBox="0 0 136 136" style="enable-background:new 0 0 136 136;" xml:space="preserve">
<style type="text/css">
	.st0{fill:#FFFFFF;}
</style>
<g id="Layer_1">
</g>
<g id="Layer_2">
	<g>
		<g>
			<path class="st0" d="M70.4,12.58c0.69-1.35,1.5-3.15,2.52-4.92l1.53,0.72c0.33,0.18,0.57,0.36,0.57,0.48
				c0,0.33-1.02,0.27-1.23,0.27l-2.76,3.45H77l1.2-1.32l1.8,1.2c0.21,0.15,0.3,0.24,0.3,0.33c0,0.18-0.27,0.24-0.63,0.24H69.5
				c0.15,0.09,0.21,0.15,0.21,0.21c0,0.24-0.66,0.42-1.14,0.57v2.67h6.54l1.11-1.14l1.65,1.05c0.21,0.15,0.3,0.24,0.3,0.33
				c0,0.15-0.27,0.21-0.63,0.21h-8.97v3.21h9.18l1.32-1.26l1.65,1.17c0.21,0.12,0.27,0.24,0.27,0.33c0,0.15-0.27,0.24-0.63,0.24
				H68.99c0.3,0.18,0.45,0.3,0.45,0.42c0,0.15-0.33,0.24-0.87,0.27c-0.03,1.32-0.12,2.52-0.27,3.57h8.76l1.2-1.26l1.56,1.17
				c0.21,0.15,0.27,0.24,0.27,0.33c0,0.15-0.27,0.24-0.57,0.21H68.75c2.58,4.23,6.54,6.75,12.21,7.05l0.09,0.27
				c-1.05,0.36-1.47,0.93-1.62,1.41c-4.65-1.05-8.85-3.93-11.16-8.73h-0.06c-1.11,5.85-4.86,7.95-12.36,8.73l-0.12-0.27
				c6.81-1.32,10.02-3.12,11.07-8.46h-8.04l-1.98,0.12l-0.36-0.66l1.89,0.09h8.58c0.21-1.23,0.3-2.64,0.3-4.26h-9.57l-1.98,0.09
				l-0.39-0.63l1.92,0.06h10.05v-3.21h-6.51l-1.98,0.15l-0.36-0.69l1.89,0.09h6.96v-3.45h-8.91l-1.98,0.12l-0.36-0.66l1.89,0.09
				H70.4z M61.67,7.81c3.27,1.65,3.93,2.07,3.96,3.57c-0.03,0.45-0.27,0.75-0.54,0.75c-0.24,0-0.51-0.18-0.72-0.69
				c-0.39-0.9-0.93-1.83-2.91-3.42L61.67,7.81z"/>
		</g>
		<g>
			<path class="st0" d="M120.5,17.07c-1.9,0-3.38,0.52-4.42,1.57c-1.05,1.05-1.58,2.58-1.58,4.58v93c0,2,0.52,3.52,1.58,4.58
				c1.05,1.05,2.52,1.57,4.42,1.57c1.6,0,3.35-0.3,5.25-0.9v3.75H92v-3.75c2,0.6,3.75,0.9,5.25,0.9c1.9,0,3.38-0.52,4.42-1.57
				c1.05-1.05,1.58-2.57,1.58-4.58V20.07l-36.9,108.15H64.1L23.9,29.67l0.15,86.55c0,1.9,0.92,3.4,2.78,4.5
				c1.85,1.1,4.13,1.65,6.82,1.65c2,0,4-0.3,6-0.9v3.75H5.75v-3.75c1.9,0.6,3.85,0.9,5.85,0.9c2.6,0,4.75-0.55,6.45-1.65
				c1.7-1.1,2.55-2.6,2.55-4.5v-93c0-1.9-0.7-3.4-2.1-4.5c-1.4-1.1-3.3-1.65-5.7-1.65c-1.7,0-3.55,0.3-5.55,0.9v-3.75H30.5
				l38.7,95.7l31.05-95.7h25.5v3.75C123.85,17.37,122.1,17.07,120.5,17.07z"/>
		</g>
		<g>
			<path class="st0" d="M69.57,43.3c0,0.81-0.51,1.65-1.59,1.65c-1.05,0-1.56-0.84-1.56-1.65c0-0.84,0.51-1.65,1.56-1.65
				C69.06,41.65,69.57,42.46,69.57,43.3z M69.57,55.15c0,0.81-0.51,1.65-1.59,1.65c-1.05,0-1.56-0.84-1.56-1.65
				c0-0.84,0.51-1.65,1.56-1.65C69.06,53.5,69.57,54.31,69.57,55.15z"/>
		</g>
	</g>
</g>
</svg>
