<svg width="285" height="285" viewBox="0 0 285 285" fill="none" xmlns="http://www.w3.org/2000/svg">
<path d="M9.5 109.25C12.1234 109.25 14.25 107.123 14.25 104.5C14.25 101.877 12.1234 99.75 9.5 99.75C6.87665 99.75 4.75 101.877 4.75 104.5C4.75 107.123 6.87665 109.25 9.5 109.25Z" fill="#994D22"/>
<path d="M9.5 118.75C12.1234 118.75 14.25 116.623 14.25 114C14.25 111.377 12.1234 109.25 9.5 109.25C6.87665 109.25 4.75 111.377 4.75 114C4.75 116.623 6.87665 118.75 9.5 118.75Z" fill="#994D22"/>
<path d="M9.5 128.25C12.1234 128.25 14.25 126.123 14.25 123.5C14.25 120.877 12.1234 118.75 9.5 118.75C6.87665 118.75 4.75 120.877 4.75 123.5C4.75 126.123 6.87665 128.25 9.5 128.25Z" fill="#994D22"/>
<path d="M9.5 137.75C12.1234 137.75 14.25 135.623 14.25 133C14.25 130.377 12.1234 128.25 9.5 128.25C6.87665 128.25 4.75 130.377 4.75 133C4.75 135.623 6.87665 137.75 9.5 137.75Z" fill="#994D22"/>
<path d="M9.5 156.75C12.1234 156.75 14.25 154.623 14.25 152C14.25 149.377 12.1234 147.25 9.5 147.25C6.87665 147.25 4.75 149.377 4.75 152C4.75 154.623 6.87665 156.75 9.5 156.75Z" fill="#994D22"/>
<path d="M9.5 175.75C12.1234 175.75 14.25 173.623 14.25 171C14.25 168.377 12.1234 166.25 9.5 166.25C6.87665 166.25 4.75 168.377 4.75 171C4.75 173.623 6.87665 175.75 9.5 175.75Z" fill="#994D22"/>
<path d="M9.5 185.25C12.1234 185.25 14.25 183.123 14.25 180.5C14.25 177.877 12.1234 175.75 9.5 175.75C6.87665 175.75 4.75 177.877 4.75 180.5C4.75 183.123 6.87665 185.25 9.5 185.25Z" fill="#994D22"/>
<path d="M9.5 204.25C12.1234 204.25 14.25 202.123 14.25 199.5C14.25 196.877 12.1234 194.75 9.5 194.75C6.87665 194.75 4.75 196.877 4.75 199.5C4.75 202.123 6.87665 204.25 9.5 204.25Z" fill="#994D22"/>
<path d="M19 90.25C21.6234 90.25 23.75 88.1234 23.75 85.5C23.75 82.8766 21.6234 80.75 19 80.75C16.3766 80.75 14.25 82.8766 14.25 85.5C14.25 88.1234 16.3766 90.25 19 90.25Z" fill="#994D22"/>
<path d="M19 118.75C21.6234 118.75 23.75 116.623 23.75 114C23.75 111.377 21.6234 109.25 19 109.25C16.3766 109.25 14.25 111.377 14.25 114C14.25 116.623 16.3766 118.75 19 118.75Z" fill="#994D22"/>
<path d="M19 128.25C21.6234 128.25 23.75 126.123 23.75 123.5C23.75 120.877 21.6234 118.75 19 118.75C16.3766 118.75 14.25 120.877 14.25 123.5C14.25 126.123 16.3766 128.25 19 128.25Z" fill="#994D22"/>
<path d="M19 147.25C21.6234 147.25 23.75 145.123 23.75 142.5C23.75 139.877 21.6234 137.75 19 137.75C16.3766 137.75 14.25 139.877 14.25 142.5C14.25 145.123 16.3766 147.25 19 147.25Z" fill="#994D22"/>
<path d="M19 156.75C21.6234 156.75 23.75 154.623 23.75 152C23.75 149.377 21.6234 147.25 19 147.25C16.3766 147.25 14.25 149.377 14.25 152C14.25 154.623 16.3766 156.75 19 156.75Z" fill="#994D22"/>
<path d="M19 175.75C21.6234 175.75 23.75 173.623 23.75 171C23.75 168.377 21.6234 166.25 19 166.25C16.3766 166.25 14.25 168.377 14.25 171C14.25 173.623 16.3766 175.75 19 175.75Z" fill="#994D22"/>
<path d="M19 185.25C21.6234 185.25 23.75 183.123 23.75 180.5C23.75 177.877 21.6234 175.75 19 175.75C16.3766 175.75 14.25 177.877 14.25 180.5C14.25 183.123 16.3766 185.25 19 185.25Z" fill="#994D22"/>
<path d="M19 194.75C21.6234 194.75 23.75 192.623 23.75 190C23.75 187.377 21.6234 185.25 19 185.25C16.3766 185.25 14.25 187.377 14.25 190C14.25 192.623 16.3766 194.75 19 194.75Z" fill="#994D22"/>
<path d="M19 204.25C21.6234 204.25 23.75 202.123 23.75 199.5C23.75 196.877 21.6234 194.75 19 194.75C16.3766 194.75 14.25 196.877 14.25 199.5C14.25 202.123 16.3766 204.25 19 204.25Z" fill="#994D22"/>
<path d="M28.5 90.25C31.1234 90.25 33.25 88.1234 33.25 85.5C33.25 82.8766 31.1234 80.75 28.5 80.75C25.8766 80.75 23.75 82.8766 23.75 85.5C23.75 88.1234 25.8766 90.25 28.5 90.25Z" fill="#994D22"/>
<path d="M28.5 109.25C31.1234 109.25 33.25 107.123 33.25 104.5C33.25 101.877 31.1234 99.75 28.5 99.75C25.8766 99.75 23.75 101.877 23.75 104.5C23.75 107.123 25.8766 109.25 28.5 109.25Z" fill="#994D22"/>
<path d="M28.5 118.75C31.1234 118.75 33.25 116.623 33.25 114C33.25 111.377 31.1234 109.25 28.5 109.25C25.8766 109.25 23.75 111.377 23.75 114C23.75 116.623 25.8766 118.75 28.5 118.75Z" fill="#994D22"/>
<path d="M28.5 137.75C31.1234 137.75 33.25 135.623 33.25 133C33.25 130.377 31.1234 128.25 28.5 128.25C25.8766 128.25 23.75 130.377 23.75 133C23.75 135.623 25.8766 137.75 28.5 137.75Z" fill="#994D22"/>
<path d="M28.5 185.25C31.1234 185.25 33.25 183.123 33.25 180.5C33.25 177.877 31.1234 175.75 28.5 175.75C25.8766 175.75 23.75 177.877 23.75 180.5C23.75 183.123 25.8766 185.25 28.5 185.25Z" fill="#994D22"/>
<path d="M28.5 204.25C31.1234 204.25 33.25 202.123 33.25 199.5C33.25 196.877 31.1234 194.75 28.5 194.75C25.8766 194.75 23.75 196.877 23.75 199.5C23.75 202.123 25.8766 204.25 28.5 204.25Z" fill="#994D22"/>
<path d="M38 109.25C40.6234 109.25 42.75 107.123 42.75 104.5C42.75 101.877 40.6234 99.75 38 99.75C35.3766 99.75 33.25 101.877 33.25 104.5C33.25 107.123 35.3766 109.25 38 109.25Z" fill="#994D22"/>
<path d="M38 128.25C40.6234 128.25 42.75 126.123 42.75 123.5C42.75 120.877 40.6234 118.75 38 118.75C35.3766 118.75 33.25 120.877 33.25 123.5C33.25 126.123 35.3766 128.25 38 128.25Z" fill="#994D22"/>
<path d="M38 156.75C40.6234 156.75 42.75 154.623 42.75 152C42.75 149.377 40.6234 147.25 38 147.25C35.3766 147.25 33.25 149.377 33.25 152C33.25 154.623 35.3766 156.75 38 156.75Z" fill="#994D22"/>
<path d="M38 166.25C40.6234 166.25 42.75 164.123 42.75 161.5C42.75 158.877 40.6234 156.75 38 156.75C35.3766 156.75 33.25 158.877 33.25 161.5C33.25 164.123 35.3766 166.25 38 166.25Z" fill="#994D22"/>
<path d="M38 175.75C40.6234 175.75 42.75 173.623 42.75 171C42.75 168.377 40.6234 166.25 38 166.25C35.3766 166.25 33.25 168.377 33.25 171C33.25 173.623 35.3766 175.75 38 175.75Z" fill="#994D22"/>
<path d="M38 194.75C40.6234 194.75 42.75 192.623 42.75 190C42.75 187.377 40.6234 185.25 38 185.25C35.3766 185.25 33.25 187.377 33.25 190C33.25 192.623 35.3766 194.75 38 194.75Z" fill="#994D22"/>
<path d="M47.5 109.25C50.1234 109.25 52.25 107.123 52.25 104.5C52.25 101.877 50.1234 99.75 47.5 99.75C44.8766 99.75 42.75 101.877 42.75 104.5C42.75 107.123 44.8766 109.25 47.5 109.25Z" fill="#994D22"/>
<path d="M47.5 118.75C50.1234 118.75 52.25 116.623 52.25 114C52.25 111.377 50.1234 109.25 47.5 109.25C44.8766 109.25 42.75 111.377 42.75 114C42.75 116.623 44.8766 118.75 47.5 118.75Z" fill="#994D22"/>
<path d="M47.5 128.25C50.1234 128.25 52.25 126.123 52.25 123.5C52.25 120.877 50.1234 118.75 47.5 118.75C44.8766 118.75 42.75 120.877 42.75 123.5C42.75 126.123 44.8766 128.25 47.5 128.25Z" fill="#994D22"/>
<path d="M47.5 137.75C50.1234 137.75 52.25 135.623 52.25 133C52.25 130.377 50.1234 128.25 47.5 128.25C44.8766 128.25 42.75 130.377 42.75 133C42.75 135.623 44.8766 137.75 47.5 137.75Z" fill="#994D22"/>
<path d="M47.5 166.25C50.1234 166.25 52.25 164.123 52.25 161.5C52.25 158.877 50.1234 156.75 47.5 156.75C44.8766 156.75 42.75 158.877 42.75 161.5C42.75 164.123 44.8766 166.25 47.5 166.25Z" fill="#994D22"/>
<path d="M47.5 175.75C50.1234 175.75 52.25 173.623 52.25 171C52.25 168.377 50.1234 166.25 47.5 166.25C44.8766 166.25 42.75 168.377 42.75 171C42.75 173.623 44.8766 175.75 47.5 175.75Z" fill="#994D22"/>
<path d="M47.5 185.25C50.1234 185.25 52.25 183.123 52.25 180.5C52.25 177.877 50.1234 175.75 47.5 175.75C44.8766 175.75 42.75 177.877 42.75 180.5C42.75 183.123 44.8766 185.25 47.5 185.25Z" fill="#994D22"/>
<path d="M47.5 194.75C50.1234 194.75 52.25 192.623 52.25 190C52.25 187.377 50.1234 185.25 47.5 185.25C44.8766 185.25 42.75 187.377 42.75 190C42.75 192.623 44.8766 194.75 47.5 194.75Z" fill="#994D22"/>
<path d="M47.5 204.25C50.1234 204.25 52.25 202.123 52.25 199.5C52.25 196.877 50.1234 194.75 47.5 194.75C44.8766 194.75 42.75 196.877 42.75 199.5C42.75 202.123 44.8766 204.25 47.5 204.25Z" fill="#994D22"/>
<path d="M57 99.75C59.6234 99.75 61.75 97.6234 61.75 95C61.75 92.3766 59.6234 90.25 57 90.25C54.3766 90.25 52.25 92.3766 52.25 95C52.25 97.6234 54.3766 99.75 57 99.75Z" fill="#994D22"/>
<path d="M57 137.75C59.6234 137.75 61.75 135.623 61.75 133C61.75 130.377 59.6234 128.25 57 128.25C54.3766 128.25 52.25 130.377 52.25 133C52.25 135.623 54.3766 137.75 57 137.75Z" fill="#994D22"/>
<path d="M57 147.25C59.6234 147.25 61.75 145.123 61.75 142.5C61.75 139.877 59.6234 137.75 57 137.75C54.3766 137.75 52.25 139.877 52.25 142.5C52.25 145.123 54.3766 147.25 57 147.25Z" fill="#994D22"/>
<path d="M57 194.75C59.6234 194.75 61.75 192.623 61.75 190C61.75 187.377 59.6234 185.25 57 185.25C54.3766 185.25 52.25 187.377 52.25 190C52.25 192.623 54.3766 194.75 57 194.75Z" fill="#994D22"/>
<path d="M57 204.25C59.6234 204.25 61.75 202.123 61.75 199.5C61.75 196.877 59.6234 194.75 57 194.75C54.3766 194.75 52.25 196.877 52.25 199.5C52.25 202.123 54.3766 204.25 57 204.25Z" fill="#994D22"/>
<path d="M66.5 90.25C69.1234 90.25 71.25 88.1234 71.25 85.5C71.25 82.8766 69.1234 80.75 66.5 80.75C63.8766 80.75 61.75 82.8766 61.75 85.5C61.75 88.1234 63.8766 90.25 66.5 90.25Z" fill="#994D22"/>
<path d="M66.5 109.25C69.1234 109.25 71.25 107.123 71.25 104.5C71.25 101.877 69.1234 99.75 66.5 99.75C63.8766 99.75 61.75 101.877 61.75 104.5C61.75 107.123 63.8766 109.25 66.5 109.25Z" fill="#994D22"/>
<path d="M66.5 128.25C69.1234 128.25 71.25 126.123 71.25 123.5C71.25 120.877 69.1234 118.75 66.5 118.75C63.8766 118.75 61.75 120.877 61.75 123.5C61.75 126.123 63.8766 128.25 66.5 128.25Z" fill="#994D22"/>
<path d="M66.5 147.25C69.1234 147.25 71.25 145.123 71.25 142.5C71.25 139.877 69.1234 137.75 66.5 137.75C63.8766 137.75 61.75 139.877 61.75 142.5C61.75 145.123 63.8766 147.25 66.5 147.25Z" fill="#994D22"/>
<path d="M66.5 166.25C69.1234 166.25 71.25 164.123 71.25 161.5C71.25 158.877 69.1234 156.75 66.5 156.75C63.8766 156.75 61.75 158.877 61.75 161.5C61.75 164.123 63.8766 166.25 66.5 166.25Z" fill="#994D22"/>
<path d="M66.5 185.25C69.1234 185.25 71.25 183.123 71.25 180.5C71.25 177.877 69.1234 175.75 66.5 175.75C63.8766 175.75 61.75 177.877 61.75 180.5C61.75 183.123 63.8766 185.25 66.5 185.25Z" fill="#994D22"/>
<path d="M66.5 204.25C69.1234 204.25 71.25 202.123 71.25 199.5C71.25 196.877 69.1234 194.75 66.5 194.75C63.8766 194.75 61.75 196.877 61.75 199.5C61.75 202.123 63.8766 204.25 66.5 204.25Z" fill="#994D22"/>
<path d="M76 99.75C78.6234 99.75 80.75 97.6234 80.75 95C80.75 92.3766 78.6234 90.25 76 90.25C73.3766 90.25 71.25 92.3766 71.25 95C71.25 97.6234 73.3766 99.75 76 99.75Z" fill="#994D22"/>
<path d="M76 128.25C78.6234 128.25 80.75 126.123 80.75 123.5C80.75 120.877 78.6234 118.75 76 118.75C73.3766 118.75 71.25 120.877 71.25 123.5C71.25 126.123 73.3766 128.25 76 128.25Z" fill="#994D22"/>
<path d="M76 137.75C78.6234 137.75 80.75 135.623 80.75 133C80.75 130.377 78.6234 128.25 76 128.25C73.3766 128.25 71.25 130.377 71.25 133C71.25 135.623 73.3766 137.75 76 137.75Z" fill="#994D22"/>
<path d="M76 147.25C78.6234 147.25 80.75 145.123 80.75 142.5C80.75 139.877 78.6234 137.75 76 137.75C73.3766 137.75 71.25 139.877 71.25 142.5C71.25 145.123 73.3766 147.25 76 147.25Z" fill="#994D22"/>
<path d="M76 156.75C78.6234 156.75 80.75 154.623 80.75 152C80.75 149.377 78.6234 147.25 76 147.25C73.3766 147.25 71.25 149.377 71.25 152C71.25 154.623 73.3766 156.75 76 156.75Z" fill="#994D22"/>
<path d="M76 166.25C78.6234 166.25 80.75 164.123 80.75 161.5C80.75 158.877 78.6234 156.75 76 156.75C73.3766 156.75 71.25 158.877 71.25 161.5C71.25 164.123 73.3766 166.25 76 166.25Z" fill="#994D22"/>
<path d="M76 175.75C78.6234 175.75 80.75 173.623 80.75 171C80.75 168.377 78.6234 166.25 76 166.25C73.3766 166.25 71.25 168.377 71.25 171C71.25 173.623 73.3766 175.75 76 175.75Z" fill="#994D22"/>
<path d="M76 185.25C78.6234 185.25 80.75 183.123 80.75 180.5C80.75 177.877 78.6234 175.75 76 175.75C73.3766 175.75 71.25 177.877 71.25 180.5C71.25 183.123 73.3766 185.25 76 185.25Z" fill="#994D22"/>
<path d="M85.5 23.75C88.1234 23.75 90.25 21.6234 90.25 19C90.25 16.3766 88.1234 14.25 85.5 14.25C82.8766 14.25 80.75 16.3766 80.75 19C80.75 21.6234 82.8766 23.75 85.5 23.75Z" fill="#994D22"/>
<path d="M85.5 33.25C88.1234 33.25 90.25 31.1234 90.25 28.5C90.25 25.8766 88.1234 23.75 85.5 23.75C82.8766 23.75 80.75 25.8766 80.75 28.5C80.75 31.1234 82.8766 33.25 85.5 33.25Z" fill="#994D22"/>
<path d="M85.5 42.75C88.1234 42.75 90.25 40.6234 90.25 38C90.25 35.3766 88.1234 33.25 85.5 33.25C82.8766 33.25 80.75 35.3766 80.75 38C80.75 40.6234 82.8766 42.75 85.5 42.75Z" fill="#994D22"/>
<path d="M85.5 61.75C88.1234 61.75 90.25 59.6234 90.25 57C90.25 54.3766 88.1234 52.25 85.5 52.25C82.8766 52.25 80.75 54.3766 80.75 57C80.75 59.6234 82.8766 61.75 85.5 61.75Z" fill="#994D22"/>
<path d="M85.5 71.25C88.1234 71.25 90.25 69.1234 90.25 66.5C90.25 63.8766 88.1234 61.75 85.5 61.75C82.8766 61.75 80.75 63.8766 80.75 66.5C80.75 69.1234 82.8766 71.25 85.5 71.25Z" fill="#994D22"/>
<path d="M85.5 128.25C88.1234 128.25 90.25 126.123 90.25 123.5C90.25 120.877 88.1234 118.75 85.5 118.75C82.8766 118.75 80.75 120.877 80.75 123.5C80.75 126.123 82.8766 128.25 85.5 128.25Z" fill="#994D22"/>
<path d="M85.5 194.75C88.1234 194.75 90.25 192.623 90.25 190C90.25 187.377 88.1234 185.25 85.5 185.25C82.8766 185.25 80.75 187.377 80.75 190C80.75 192.623 82.8766 194.75 85.5 194.75Z" fill="#994D22"/>
<path d="M85.5 261.25C88.1234 261.25 90.25 259.123 90.25 256.5C90.25 253.877 88.1234 251.75 85.5 251.75C82.8766 251.75 80.75 253.877 80.75 256.5C80.75 259.123 82.8766 261.25 85.5 261.25Z" fill="#994D22"/>
<path d="M85.5 270.75C88.1234 270.75 90.25 268.623 90.25 266C90.25 263.377 88.1234 261.25 85.5 261.25C82.8766 261.25 80.75 263.377 80.75 266C80.75 268.623 82.8766 270.75 85.5 270.75Z" fill="#994D22"/>
<path d="M95 33.25C97.6234 33.25 99.75 31.1234 99.75 28.5C99.75 25.8766 97.6234 23.75 95 23.75C92.3766 23.75 90.25 25.8766 90.25 28.5C90.25 31.1234 92.3766 33.25 95 33.25Z" fill="#994D22"/>
<path d="M95 52.25C97.6234 52.25 99.75 50.1234 99.75 47.5C99.75 44.8766 97.6234 42.75 95 42.75C92.3766 42.75 90.25 44.8766 90.25 47.5C90.25 50.1234 92.3766 52.25 95 52.25Z" fill="#994D22"/>
<path d="M95 80.75C97.6234 80.75 99.75 78.6234 99.75 76C99.75 73.3766 97.6234 71.25 95 71.25C92.3766 71.25 90.25 73.3766 90.25 76C90.25 78.6234 92.3766 80.75 95 80.75Z" fill="#994D22"/>
<path d="M95 90.25C97.6234 90.25 99.75 88.1234 99.75 85.5C99.75 82.8766 97.6234 80.75 95 80.75C92.3766 80.75 90.25 82.8766 90.25 85.5C90.25 88.1234 92.3766 90.25 95 90.25Z" fill="#994D22"/>
<path d="M95 109.25C97.6234 109.25 99.75 107.123 99.75 104.5C99.75 101.877 97.6234 99.75 95 99.75C92.3766 99.75 90.25 101.877 90.25 104.5C90.25 107.123 92.3766 109.25 95 109.25Z" fill="#994D22"/>
<path d="M95 128.25C97.6234 128.25 99.75 126.123 99.75 123.5C99.75 120.877 97.6234 118.75 95 118.75C92.3766 118.75 90.25 120.877 90.25 123.5C90.25 126.123 92.3766 128.25 95 128.25Z" fill="#994D22"/>
<path d="M95 166.25C97.6234 166.25 99.75 164.123 99.75 161.5C99.75 158.877 97.6234 156.75 95 156.75C92.3766 156.75 90.25 158.877 90.25 161.5C90.25 164.123 92.3766 166.25 95 166.25Z" fill="#994D22"/>
<path d="M95 213.75C97.6234 213.75 99.75 211.623 99.75 209C99.75 206.377 97.6234 204.25 95 204.25C92.3766 204.25 90.25 206.377 90.25 209C90.25 211.623 92.3766 213.75 95 213.75Z" fill="#994D22"/>
<path d="M95 223.25C97.6234 223.25 99.75 221.123 99.75 218.5C99.75 215.877 97.6234 213.75 95 213.75C92.3766 213.75 90.25 215.877 90.25 218.5C90.25 221.123 92.3766 223.25 95 223.25Z" fill="#994D22"/>
<path d="M95 232.75C97.6234 232.75 99.75 230.623 99.75 228C99.75 225.377 97.6234 223.25 95 223.25C92.3766 223.25 90.25 225.377 90.25 228C90.25 230.623 92.3766 232.75 95 232.75Z" fill="#994D22"/>
<path d="M95 242.25C97.6234 242.25 99.75 240.123 99.75 237.5C99.75 234.877 97.6234 232.75 95 232.75C92.3766 232.75 90.25 234.877 90.25 237.5C90.25 240.123 92.3766 242.25 95 242.25Z" fill="#994D22"/>
<path d="M95 251.75C97.6234 251.75 99.75 249.623 99.75 247C99.75 244.377 97.6234 242.25 95 242.25C92.3766 242.25 90.25 244.377 90.25 247C90.25 249.623 92.3766 251.75 95 251.75Z" fill="#994D22"/>
<path d="M95 261.25C97.6234 261.25 99.75 259.123 99.75 256.5C99.75 253.877 97.6234 251.75 95 251.75C92.3766 251.75 90.25 253.877 90.25 256.5C90.25 259.123 92.3766 261.25 95 261.25Z" fill="#994D22"/>
<path d="M95 280.25C97.6234 280.25 99.75 278.123 99.75 275.5C99.75 272.877 97.6234 270.75 95 270.75C92.3766 270.75 90.25 272.877 90.25 275.5C90.25 278.123 92.3766 280.25 95 280.25Z" fill="#994D22"/>
<path d="M104.5 14.25C107.123 14.25 109.25 12.1234 109.25 9.5C109.25 6.87665 107.123 4.75 104.5 4.75C101.877 4.75 99.75 6.87665 99.75 9.5C99.75 12.1234 101.877 14.25 104.5 14.25Z" fill="#994D22"/>
<path d="M104.5 23.75C107.123 23.75 109.25 21.6234 109.25 19C109.25 16.3766 107.123 14.25 104.5 14.25C101.877 14.25 99.75 16.3766 99.75 19C99.75 21.6234 101.877 23.75 104.5 23.75Z" fill="#994D22"/>
<path d="M104.5 42.75C107.123 42.75 109.25 40.6234 109.25 38C109.25 35.3766 107.123 33.25 104.5 33.25C101.877 33.25 99.75 35.3766 99.75 38C99.75 40.6234 101.877 42.75 104.5 42.75Z" fill="#994D22"/>
<path d="M104.5 71.25C107.123 71.25 109.25 69.1234 109.25 66.5C109.25 63.8766 107.123 61.75 104.5 61.75C101.877 61.75 99.75 63.8766 99.75 66.5C99.75 69.1234 101.877 71.25 104.5 71.25Z" fill="#994D22"/>
<path d="M104.5 90.25C107.123 90.25 109.25 88.1234 109.25 85.5C109.25 82.8766 107.123 80.75 104.5 80.75C101.877 80.75 99.75 82.8766 99.75 85.5C99.75 88.1234 101.877 90.25 104.5 90.25Z" fill="#994D22"/>
<path d="M104.5 109.25C107.123 109.25 109.25 107.123 109.25 104.5C109.25 101.877 107.123 99.75 104.5 99.75C101.877 99.75 99.75 101.877 99.75 104.5C99.75 107.123 101.877 109.25 104.5 109.25Z" fill="#994D22"/>
<path d="M104.5 118.75C107.123 118.75 109.25 116.623 109.25 114C109.25 111.377 107.123 109.25 104.5 109.25C101.877 109.25 99.75 111.377 99.75 114C99.75 116.623 101.877 118.75 104.5 118.75Z" fill="#994D22"/>
<path d="M104.5 137.75C107.123 137.75 109.25 135.623 109.25 133C109.25 130.377 107.123 128.25 104.5 128.25C101.877 128.25 99.75 130.377 99.75 133C99.75 135.623 101.877 137.75 104.5 137.75Z" fill="#994D22"/>
<path d="M104.5 156.75C107.123 156.75 109.25 154.623 109.25 152C109.25 149.377 107.123 147.25 104.5 147.25C101.877 147.25 99.75 149.377 99.75 152C99.75 154.623 101.877 156.75 104.5 156.75Z" fill="#994D22"/>
<path d="M104.5 166.25C107.123 166.25 109.25 164.123 109.25 161.5C109.25 158.877 107.123 156.75 104.5 156.75C101.877 156.75 99.75 158.877 99.75 161.5C99.75 164.123 101.877 166.25 104.5 166.25Z" fill="#994D22"/>
<path d="M104.5 175.75C107.123 175.75 109.25 173.623 109.25 171C109.25 168.377 107.123 166.25 104.5 166.25C101.877 166.25 99.75 168.377 99.75 171C99.75 173.623 101.877 175.75 104.5 175.75Z" fill="#994D22"/>
<path d="M104.5 223.25C107.123 223.25 109.25 221.123 109.25 218.5C109.25 215.877 107.123 213.75 104.5 213.75C101.877 213.75 99.75 215.877 99.75 218.5C99.75 221.123 101.877 223.25 104.5 223.25Z" fill="#994D22"/>
<path d="M104.5 242.25C107.123 242.25 109.25 240.123 109.25 237.5C109.25 234.877 107.123 232.75 104.5 232.75C101.877 232.75 99.75 234.877 99.75 237.5C99.75 240.123 101.877 242.25 104.5 242.25Z" fill="#994D22"/>
<path d="M104.5 251.75C107.123 251.75 109.25 249.623 109.25 247C109.25 244.377 107.123 242.25 104.5 242.25C101.877 242.25 99.75 244.377 99.75 247C99.75 249.623 101.877 251.75 104.5 251.75Z" fill="#994D22"/>
<path d="M104.5 270.75C107.123 270.75 109.25 268.623 109.25 266C109.25 263.377 107.123 261.25 104.5 261.25C101.877 261.25 99.75 263.377 99.75 266C99.75 268.623 101.877 270.75 104.5 270.75Z" fill="#994D22"/>
<path d="M114 42.75C116.623 42.75 118.75 40.6234 118.75 38C118.75 35.3766 116.623 33.25 114 33.25C111.377 33.25 109.25 35.3766 109.25 38C109.25 40.6234 111.377 42.75 114 42.75Z" fill="#994D22"/>
<path d="M114 52.25C116.623 52.25 118.75 50.1234 118.75 47.5C118.75 44.8766 116.623 42.75 114 42.75C111.377 42.75 109.25 44.8766 109.25 47.5C109.25 50.1234 111.377 52.25 114 52.25Z" fill="#994D22"/>
<path d="M114 80.75C116.623 80.75 118.75 78.6234 118.75 76C118.75 73.3766 116.623 71.25 114 71.25C111.377 71.25 109.25 73.3766 109.25 76C109.25 78.6234 111.377 80.75 114 80.75Z" fill="#994D22"/>
<path d="M114 90.25C116.623 90.25 118.75 88.1234 118.75 85.5C118.75 82.8766 116.623 80.75 114 80.75C111.377 80.75 109.25 82.8766 109.25 85.5C109.25 88.1234 111.377 90.25 114 90.25Z" fill="#994D22"/>
<path d="M114 156.75C116.623 156.75 118.75 154.623 118.75 152C118.75 149.377 116.623 147.25 114 147.25C111.377 147.25 109.25 149.377 109.25 152C109.25 154.623 111.377 156.75 114 156.75Z" fill="#994D22"/>
<path d="M114 166.25C116.623 166.25 118.75 164.123 118.75 161.5C118.75 158.877 116.623 156.75 114 156.75C111.377 156.75 109.25 158.877 109.25 161.5C109.25 164.123 111.377 166.25 114 166.25Z" fill="#994D22"/>
<path d="M114 185.25C116.623 185.25 118.75 183.123 118.75 180.5C118.75 177.877 116.623 175.75 114 175.75C111.377 175.75 109.25 177.877 109.25 180.5C109.25 183.123 111.377 185.25 114 185.25Z" fill="#994D22"/>
<path d="M114 194.75C116.623 194.75 118.75 192.623 118.75 190C118.75 187.377 116.623 185.25 114 185.25C111.377 185.25 109.25 187.377 109.25 190C109.25 192.623 111.377 194.75 114 194.75Z" fill="#994D22"/>
<path d="M114 204.25C116.623 204.25 118.75 202.123 118.75 199.5C118.75 196.877 116.623 194.75 114 194.75C111.377 194.75 109.25 196.877 109.25 199.5C109.25 202.123 111.377 204.25 114 204.25Z" fill="#994D22"/>
<path d="M114 280.25C116.623 280.25 118.75 278.123 118.75 275.5C118.75 272.877 116.623 270.75 114 270.75C111.377 270.75 109.25 272.877 109.25 275.5C109.25 278.123 111.377 280.25 114 280.25Z" fill="#994D22"/>
<path d="M123.5 23.75C126.123 23.75 128.25 21.6234 128.25 19C128.25 16.3766 126.123 14.25 123.5 14.25C120.877 14.25 118.75 16.3766 118.75 19C118.75 21.6234 120.877 23.75 123.5 23.75Z" fill="#994D22"/>
<path d="M123.5 33.25C126.123 33.25 128.25 31.1234 128.25 28.5C128.25 25.8766 126.123 23.75 123.5 23.75C120.877 23.75 118.75 25.8766 118.75 28.5C118.75 31.1234 120.877 33.25 123.5 33.25Z" fill="#994D22"/>
<path d="M123.5 42.75C126.123 42.75 128.25 40.6234 128.25 38C128.25 35.3766 126.123 33.25 123.5 33.25C120.877 33.25 118.75 35.3766 118.75 38C118.75 40.6234 120.877 42.75 123.5 42.75Z" fill="#994D22"/>
<path d="M123.5 52.25C126.123 52.25 128.25 50.1234 128.25 47.5C128.25 44.8766 126.123 42.75 123.5 42.75C120.877 42.75 118.75 44.8766 118.75 47.5C118.75 50.1234 120.877 52.25 123.5 52.25Z" fill="#994D22"/>
<path d="M123.5 71.25C126.123 71.25 128.25 69.1234 128.25 66.5C128.25 63.8766 126.123 61.75 123.5 61.75C120.877 61.75 118.75 63.8766 118.75 66.5C118.75 69.1234 120.877 71.25 123.5 71.25Z" fill="#994D22"/>
<path d="M123.5 80.75C126.123 80.75 128.25 78.6234 128.25 76C128.25 73.3766 126.123 71.25 123.5 71.25C120.877 71.25 118.75 73.3766 118.75 76C118.75 78.6234 120.877 80.75 123.5 80.75Z" fill="#994D22"/>
<path d="M123.5 99.75C126.123 99.75 128.25 97.6234 128.25 95C128.25 92.3766 126.123 90.25 123.5 90.25C120.877 90.25 118.75 92.3766 118.75 95C118.75 97.6234 120.877 99.75 123.5 99.75Z" fill="#994D22"/>
<path d="M123.5 118.75C126.123 118.75 128.25 116.623 128.25 114C128.25 111.377 126.123 109.25 123.5 109.25C120.877 109.25 118.75 111.377 118.75 114C118.75 116.623 120.877 118.75 123.5 118.75Z" fill="#994D22"/>
<path d="M123.5 156.75C126.123 156.75 128.25 154.623 128.25 152C128.25 149.377 126.123 147.25 123.5 147.25C120.877 147.25 118.75 149.377 118.75 152C118.75 154.623 120.877 156.75 123.5 156.75Z" fill="#994D22"/>
<path d="M123.5 166.25C126.123 166.25 128.25 164.123 128.25 161.5C128.25 158.877 126.123 156.75 123.5 156.75C120.877 156.75 118.75 158.877 118.75 161.5C118.75 164.123 120.877 166.25 123.5 166.25Z" fill="#994D22"/>
<path d="M123.5 175.75C126.123 175.75 128.25 173.623 128.25 171C128.25 168.377 126.123 166.25 123.5 166.25C120.877 166.25 118.75 168.377 118.75 171C118.75 173.623 120.877 175.75 123.5 175.75Z" fill="#994D22"/>
<path d="M123.5 213.75C126.123 213.75 128.25 211.623 128.25 209C128.25 206.377 126.123 204.25 123.5 204.25C120.877 204.25 118.75 206.377 118.75 209C118.75 211.623 120.877 213.75 123.5 213.75Z" fill="#994D22"/>
<path d="M123.5 232.75C126.123 232.75 128.25 230.623 128.25 228C128.25 225.377 126.123 223.25 123.5 223.25C120.877 223.25 118.75 225.377 118.75 228C118.75 230.623 120.877 232.75 123.5 232.75Z" fill="#994D22"/>
<path d="M123.5 251.75C126.123 251.75 128.25 249.623 128.25 247C128.25 244.377 126.123 242.25 123.5 242.25C120.877 242.25 118.75 244.377 118.75 247C118.75 249.623 120.877 251.75 123.5 251.75Z" fill="#994D22"/>
<path d="M123.5 270.75C126.123 270.75 128.25 268.623 128.25 266C128.25 263.377 126.123 261.25 123.5 261.25C120.877 261.25 118.75 263.377 118.75 266C118.75 268.623 120.877 270.75 123.5 270.75Z" fill="#994D22"/>
<path d="M123.5 280.25C126.123 280.25 128.25 278.123 128.25 275.5C128.25 272.877 126.123 270.75 123.5 270.75C120.877 270.75 118.75 272.877 118.75 275.5C118.75 278.123 120.877 280.25 123.5 280.25Z" fill="#994D22"/>
<path d="M133 14.25C135.623 14.25 137.75 12.1234 137.75 9.5C137.75 6.87665 135.623 4.75 133 4.75C130.377 4.75 128.25 6.87665 128.25 9.5C128.25 12.1234 130.377 14.25 133 14.25Z" fill="#994D22"/>
<path d="M133 52.25C135.623 52.25 137.75 50.1234 137.75 47.5C137.75 44.8766 135.623 42.75 133 42.75C130.377 42.75 128.25 44.8766 128.25 47.5C128.25 50.1234 130.377 52.25 133 52.25Z" fill="#994D22"/>
<path d="M133 90.25C135.623 90.25 137.75 88.1234 137.75 85.5C137.75 82.8766 135.623 80.75 133 80.75C130.377 80.75 128.25 82.8766 128.25 85.5C128.25 88.1234 130.377 90.25 133 90.25Z" fill="#994D22"/>
<path d="M133 99.75C135.623 99.75 137.75 97.6234 137.75 95C137.75 92.3766 135.623 90.25 133 90.25C130.377 90.25 128.25 92.3766 128.25 95C128.25 97.6234 130.377 99.75 133 99.75Z" fill="#994D22"/>
<path d="M133 118.75C135.623 118.75 137.75 116.623 137.75 114C137.75 111.377 135.623 109.25 133 109.25C130.377 109.25 128.25 111.377 128.25 114C128.25 116.623 130.377 118.75 133 118.75Z" fill="#994D22"/>
<path d="M133 128.25C135.623 128.25 137.75 126.123 137.75 123.5C137.75 120.877 135.623 118.75 133 118.75C130.377 118.75 128.25 120.877 128.25 123.5C128.25 126.123 130.377 128.25 133 128.25Z" fill="#994D22"/>
<path d="M133 137.75C135.623 137.75 137.75 135.623 137.75 133C137.75 130.377 135.623 128.25 133 128.25C130.377 128.25 128.25 130.377 128.25 133C128.25 135.623 130.377 137.75 133 137.75Z" fill="#994D22"/>
<path d="M133 166.25C135.623 166.25 137.75 164.123 137.75 161.5C137.75 158.877 135.623 156.75 133 156.75C130.377 156.75 128.25 158.877 128.25 161.5C128.25 164.123 130.377 166.25 133 166.25Z" fill="#994D22"/>
<path d="M133 185.25C135.623 185.25 137.75 183.123 137.75 180.5C137.75 177.877 135.623 175.75 133 175.75C130.377 175.75 128.25 177.877 128.25 180.5C128.25 183.123 130.377 185.25 133 185.25Z" fill="#994D22"/>
<path d="M133 194.75C135.623 194.75 137.75 192.623 137.75 190C137.75 187.377 135.623 185.25 133 185.25C130.377 185.25 128.25 187.377 128.25 190C128.25 192.623 130.377 194.75 133 194.75Z" fill="#994D22"/>
<path d="M133 223.25C135.623 223.25 137.75 221.123 137.75 218.5C137.75 215.877 135.623 213.75 133 213.75C130.377 213.75 128.25 215.877 128.25 218.5C128.25 221.123 130.377 223.25 133 223.25Z" fill="#994D22"/>
<path d="M133 232.75C135.623 232.75 137.75 230.623 137.75 228C137.75 225.377 135.623 223.25 133 223.25C130.377 223.25 128.25 225.377 128.25 228C128.25 230.623 130.377 232.75 133 232.75Z" fill="#994D22"/>
<path d="M133 251.75C135.623 251.75 137.75 249.623 137.75 247C137.75 244.377 135.623 242.25 133 242.25C130.377 242.25 128.25 244.377 128.25 247C128.25 249.623 130.377 251.75 133 251.75Z" fill="#994D22"/>
<path d="M133 261.25C135.623 261.25 137.75 259.123 137.75 256.5C137.75 253.877 135.623 251.75 133 251.75C130.377 251.75 128.25 253.877 128.25 256.5C128.25 259.123 130.377 261.25 133 261.25Z" fill="#994D22"/>
<path d="M133 280.25C135.623 280.25 137.75 278.123 137.75 275.5C137.75 272.877 135.623 270.75 133 270.75C130.377 270.75 128.25 272.877 128.25 275.5C128.25 278.123 130.377 280.25 133 280.25Z" fill="#994D22"/>
<path d="M142.5 14.25C145.123 14.25 147.25 12.1234 147.25 9.5C147.25 6.87665 145.123 4.75 142.5 4.75C139.877 4.75 137.75 6.87665 137.75 9.5C137.75 12.1234 139.877 14.25 142.5 14.25Z" fill="#994D22"/>
<path d="M142.5 23.75C145.123 23.75 147.25 21.6234 147.25 19C147.25 16.3766 145.123 14.25 142.5 14.25C139.877 14.25 137.75 16.3766 137.75 19C137.75 21.6234 139.877 23.75 142.5 23.75Z" fill="#994D22"/>
<path d="M142.5 33.25C145.123 33.25 147.25 31.1234 147.25 28.5C147.25 25.8766 145.123 23.75 142.5 23.75C139.877 23.75 137.75 25.8766 137.75 28.5C137.75 31.1234 139.877 33.25 142.5 33.25Z" fill="#994D22"/>
<path d="M142.5 42.75C145.123 42.75 147.25 40.6234 147.25 38C147.25 35.3766 145.123 33.25 142.5 33.25C139.877 33.25 137.75 35.3766 137.75 38C137.75 40.6234 139.877 42.75 142.5 42.75Z" fill="#994D22"/>
<path d="M142.5 52.25C145.123 52.25 147.25 50.1234 147.25 47.5C147.25 44.8766 145.123 42.75 142.5 42.75C139.877 42.75 137.75 44.8766 137.75 47.5C137.75 50.1234 139.877 52.25 142.5 52.25Z" fill="#994D22"/>
<path d="M142.5 61.75C145.123 61.75 147.25 59.6234 147.25 57C147.25 54.3766 145.123 52.25 142.5 52.25C139.877 52.25 137.75 54.3766 137.75 57C137.75 59.6234 139.877 61.75 142.5 61.75Z" fill="#994D22"/>
<path d="M142.5 71.25C145.123 71.25 147.25 69.1234 147.25 66.5C147.25 63.8766 145.123 61.75 142.5 61.75C139.877 61.75 137.75 63.8766 137.75 66.5C137.75 69.1234 139.877 71.25 142.5 71.25Z" fill="#994D22"/>
<path d="M142.5 90.25C145.123 90.25 147.25 88.1234 147.25 85.5C147.25 82.8766 145.123 80.75 142.5 80.75C139.877 80.75 137.75 82.8766 137.75 85.5C137.75 88.1234 139.877 90.25 142.5 90.25Z" fill="#994D22"/>
<path d="M142.5 99.75C145.123 99.75 147.25 97.6234 147.25 95C147.25 92.3766 145.123 90.25 142.5 90.25C139.877 90.25 137.75 92.3766 137.75 95C137.75 97.6234 139.877 99.75 142.5 99.75Z" fill="#994D22"/>
<path d="M142.5 109.25C145.123 109.25 147.25 107.123 147.25 104.5C147.25 101.877 145.123 99.75 142.5 99.75C139.877 99.75 137.75 101.877 137.75 104.5C137.75 107.123 139.877 109.25 142.5 109.25Z" fill="#994D22"/>
<path d="M142.5 118.75C145.123 118.75 147.25 116.623 147.25 114C147.25 111.377 145.123 109.25 142.5 109.25C139.877 109.25 137.75 111.377 137.75 114C137.75 116.623 139.877 118.75 142.5 118.75Z" fill="#994D22"/>
<path d="M142.5 166.25C145.123 166.25 147.25 164.123 147.25 161.5C147.25 158.877 145.123 156.75 142.5 156.75C139.877 156.75 137.75 158.877 137.75 161.5C137.75 164.123 139.877 166.25 142.5 166.25Z" fill="#994D22"/>
<path d="M142.5 175.75C145.123 175.75 147.25 173.623 147.25 171C147.25 168.377 145.123 166.25 142.5 166.25C139.877 166.25 137.75 168.377 137.75 171C137.75 173.623 139.877 175.75 142.5 175.75Z" fill="#994D22"/>
<path d="M142.5 185.25C145.123 185.25 147.25 183.123 147.25 180.5C147.25 177.877 145.123 175.75 142.5 175.75C139.877 175.75 137.75 177.877 137.75 180.5C137.75 183.123 139.877 185.25 142.5 185.25Z" fill="#994D22"/>
<path d="M142.5 194.75C145.123 194.75 147.25 192.623 147.25 190C147.25 187.377 145.123 185.25 142.5 185.25C139.877 185.25 137.75 187.377 137.75 190C137.75 192.623 139.877 194.75 142.5 194.75Z" fill="#994D22"/>
<path d="M142.5 204.25C145.123 204.25 147.25 202.123 147.25 199.5C147.25 196.877 145.123 194.75 142.5 194.75C139.877 194.75 137.75 196.877 137.75 199.5C137.75 202.123 139.877 204.25 142.5 204.25Z" fill="#994D22"/>
<path d="M142.5 232.75C145.123 232.75 147.25 230.623 147.25 228C147.25 225.377 145.123 223.25 142.5 223.25C139.877 223.25 137.75 225.377 137.75 228C137.75 230.623 139.877 232.75 142.5 232.75Z" fill="#994D22"/>
<path d="M142.5 242.25C145.123 242.25 147.25 240.123 147.25 237.5C147.25 234.877 145.123 232.75 142.5 232.75C139.877 232.75 137.75 234.877 137.75 237.5C137.75 240.123 139.877 242.25 142.5 242.25Z" fill="#994D22"/>
<path d="M142.5 251.75C145.123 251.75 147.25 249.623 147.25 247C147.25 244.377 145.123 242.25 142.5 242.25C139.877 242.25 137.75 244.377 137.75 247C137.75 249.623 139.877 251.75 142.5 251.75Z" fill="#994D22"/>
<path d="M142.5 280.25C145.123 280.25 147.25 278.123 147.25 275.5C147.25 272.877 145.123 270.75 142.5 270.75C139.877 270.75 137.75 272.877 137.75 275.5C137.75 278.123 139.877 280.25 142.5 280.25Z" fill="#994D22"/>
<path d="M152 14.25C154.623 14.25 156.75 12.1234 156.75 9.5C156.75 6.87665 154.623 4.75 152 4.75C149.377 4.75 147.25 6.87665 147.25 9.5C147.25 12.1234 149.377 14.25 152 14.25Z" fill="#994D22"/>
<path d="M152 61.75C154.623 61.75 156.75 59.6234 156.75 57C156.75 54.3766 154.623 52.25 152 52.25C149.377 52.25 147.25 54.3766 147.25 57C147.25 59.6234 149.377 61.75 152 61.75Z" fill="#994D22"/>
<path d="M152 80.75C154.623 80.75 156.75 78.6234 156.75 76C156.75 73.3766 154.623 71.25 152 71.25C149.377 71.25 147.25 73.3766 147.25 76C147.25 78.6234 149.377 80.75 152 80.75Z" fill="#994D22"/>
<path d="M152 90.25C154.623 90.25 156.75 88.1234 156.75 85.5C156.75 82.8766 154.623 80.75 152 80.75C149.377 80.75 147.25 82.8766 147.25 85.5C147.25 88.1234 149.377 90.25 152 90.25Z" fill="#994D22"/>
<path d="M152 109.25C154.623 109.25 156.75 107.123 156.75 104.5C156.75 101.877 154.623 99.75 152 99.75C149.377 99.75 147.25 101.877 147.25 104.5C147.25 107.123 149.377 109.25 152 109.25Z" fill="#994D22"/>
<path d="M152 128.25C154.623 128.25 156.75 126.123 156.75 123.5C156.75 120.877 154.623 118.75 152 118.75C149.377 118.75 147.25 120.877 147.25 123.5C147.25 126.123 149.377 128.25 152 128.25Z" fill="#994D22"/>
<path d="M152 137.75C154.623 137.75 156.75 135.623 156.75 133C156.75 130.377 154.623 128.25 152 128.25C149.377 128.25 147.25 130.377 147.25 133C147.25 135.623 149.377 137.75 152 137.75Z" fill="#994D22"/>
<path d="M152 147.25C154.623 147.25 156.75 145.123 156.75 142.5C156.75 139.877 154.623 137.75 152 137.75C149.377 137.75 147.25 139.877 147.25 142.5C147.25 145.123 149.377 147.25 152 147.25Z" fill="#994D22"/>
<path d="M152 175.75C154.623 175.75 156.75 173.623 156.75 171C156.75 168.377 154.623 166.25 152 166.25C149.377 166.25 147.25 168.377 147.25 171C147.25 173.623 149.377 175.75 152 175.75Z" fill="#994D22"/>
<path d="M152 185.25C154.623 185.25 156.75 183.123 156.75 180.5C156.75 177.877 154.623 175.75 152 175.75C149.377 175.75 147.25 177.877 147.25 180.5C147.25 183.123 149.377 185.25 152 185.25Z" fill="#994D22"/>
<path d="M152 204.25C154.623 204.25 156.75 202.123 156.75 199.5C156.75 196.877 154.623 194.75 152 194.75C149.377 194.75 147.25 196.877 147.25 199.5C147.25 202.123 149.377 204.25 152 204.25Z" fill="#994D22"/>
<path d="M152 223.25C154.623 223.25 156.75 221.123 156.75 218.5C156.75 215.877 154.623 213.75 152 213.75C149.377 213.75 147.25 215.877 147.25 218.5C147.25 221.123 149.377 223.25 152 223.25Z" fill="#994D22"/>
<path d="M152 242.25C154.623 242.25 156.75 240.123 156.75 237.5C156.75 234.877 154.623 232.75 152 232.75C149.377 232.75 147.25 234.877 147.25 237.5C147.25 240.123 149.377 242.25 152 242.25Z" fill="#994D22"/>
<path d="M152 251.75C154.623 251.75 156.75 249.623 156.75 247C156.75 244.377 154.623 242.25 152 242.25C149.377 242.25 147.25 244.377 147.25 247C147.25 249.623 149.377 251.75 152 251.75Z" fill="#994D22"/>
<path d="M161.5 33.25C164.123 33.25 166.25 31.1234 166.25 28.5C166.25 25.8766 164.123 23.75 161.5 23.75C158.877 23.75 156.75 25.8766 156.75 28.5C156.75 31.1234 158.877 33.25 161.5 33.25Z" fill="#994D22"/>
<path d="M161.5 52.25C164.123 52.25 166.25 50.1234 166.25 47.5C166.25 44.8766 164.123 42.75 161.5 42.75C158.877 42.75 156.75 44.8766 156.75 47.5C156.75 50.1234 158.877 52.25 161.5 52.25Z" fill="#994D22"/>
<path d="M161.5 61.75C164.123 61.75 166.25 59.6234 166.25 57C166.25 54.3766 164.123 52.25 161.5 52.25C158.877 52.25 156.75 54.3766 156.75 57C156.75 59.6234 158.877 61.75 161.5 61.75Z" fill="#994D22"/>
<path d="M161.5 71.25C164.123 71.25 166.25 69.1234 166.25 66.5C166.25 63.8766 164.123 61.75 161.5 61.75C158.877 61.75 156.75 63.8766 156.75 66.5C156.75 69.1234 158.877 71.25 161.5 71.25Z" fill="#994D22"/>
<path d="M161.5 80.75C164.123 80.75 166.25 78.6234 166.25 76C166.25 73.3766 164.123 71.25 161.5 71.25C158.877 71.25 156.75 73.3766 156.75 76C156.75 78.6234 158.877 80.75 161.5 80.75Z" fill="#994D22"/>
<path d="M161.5 99.75C164.123 99.75 166.25 97.6234 166.25 95C166.25 92.3766 164.123 90.25 161.5 90.25C158.877 90.25 156.75 92.3766 156.75 95C156.75 97.6234 158.877 99.75 161.5 99.75Z" fill="#994D22"/>
<path d="M161.5 109.25C164.123 109.25 166.25 107.123 166.25 104.5C166.25 101.877 164.123 99.75 161.5 99.75C158.877 99.75 156.75 101.877 156.75 104.5C156.75 107.123 158.877 109.25 161.5 109.25Z" fill="#994D22"/>
<path d="M161.5 137.75C164.123 137.75 166.25 135.623 166.25 133C166.25 130.377 164.123 128.25 161.5 128.25C158.877 128.25 156.75 130.377 156.75 133C156.75 135.623 158.877 137.75 161.5 137.75Z" fill="#994D22"/>
<path d="M161.5 156.75C164.123 156.75 166.25 154.623 166.25 152C166.25 149.377 164.123 147.25 161.5 147.25C158.877 147.25 156.75 149.377 156.75 152C156.75 154.623 158.877 156.75 161.5 156.75Z" fill="#994D22"/>
<path d="M161.5 166.25C164.123 166.25 166.25 164.123 166.25 161.5C166.25 158.877 164.123 156.75 161.5 156.75C158.877 156.75 156.75 158.877 156.75 161.5C156.75 164.123 158.877 166.25 161.5 166.25Z" fill="#994D22"/>
<path d="M161.5 175.75C164.123 175.75 166.25 173.623 166.25 171C166.25 168.377 164.123 166.25 161.5 166.25C158.877 166.25 156.75 168.377 156.75 171C156.75 173.623 158.877 175.75 161.5 175.75Z" fill="#994D22"/>
<path d="M161.5 185.25C164.123 185.25 166.25 183.123 166.25 180.5C166.25 177.877 164.123 175.75 161.5 175.75C158.877 175.75 156.75 177.877 156.75 180.5C156.75 183.123 158.877 185.25 161.5 185.25Z" fill="#994D22"/>
<path d="M161.5 194.75C164.123 194.75 166.25 192.623 166.25 190C166.25 187.377 164.123 185.25 161.5 185.25C158.877 185.25 156.75 187.377 156.75 190C156.75 192.623 158.877 194.75 161.5 194.75Z" fill="#994D22"/>
<path d="M161.5 204.25C164.123 204.25 166.25 202.123 166.25 199.5C166.25 196.877 164.123 194.75 161.5 194.75C158.877 194.75 156.75 196.877 156.75 199.5C156.75 202.123 158.877 204.25 161.5 204.25Z" fill="#994D22"/>
<path d="M161.5 213.75C164.123 213.75 166.25 211.623 166.25 209C166.25 206.377 164.123 204.25 161.5 204.25C158.877 204.25 156.75 206.377 156.75 209C156.75 211.623 158.877 213.75 161.5 213.75Z" fill="#994D22"/>
<path d="M161.5 242.25C164.123 242.25 166.25 240.123 166.25 237.5C166.25 234.877 164.123 232.75 161.5 232.75C158.877 232.75 156.75 234.877 156.75 237.5C156.75 240.123 158.877 242.25 161.5 242.25Z" fill="#994D22"/>
<path d="M161.5 251.75C164.123 251.75 166.25 249.623 166.25 247C166.25 244.377 164.123 242.25 161.5 242.25C158.877 242.25 156.75 244.377 156.75 247C156.75 249.623 158.877 251.75 161.5 251.75Z" fill="#994D22"/>
<path d="M161.5 270.75C164.123 270.75 166.25 268.623 166.25 266C166.25 263.377 164.123 261.25 161.5 261.25C158.877 261.25 156.75 263.377 156.75 266C156.75 268.623 158.877 270.75 161.5 270.75Z" fill="#994D22"/>
<path d="M161.5 280.25C164.123 280.25 166.25 278.123 166.25 275.5C166.25 272.877 164.123 270.75 161.5 270.75C158.877 270.75 156.75 272.877 156.75 275.5C156.75 278.123 158.877 280.25 161.5 280.25Z" fill="#994D22"/>
<path d="M171 23.75C173.623 23.75 175.75 21.6234 175.75 19C175.75 16.3766 173.623 14.25 171 14.25C168.377 14.25 166.25 16.3766 166.25 19C166.25 21.6234 168.377 23.75 171 23.75Z" fill="#994D22"/>
<path d="M171 80.75C173.623 80.75 175.75 78.6234 175.75 76C175.75 73.3766 173.623 71.25 171 71.25C168.377 71.25 166.25 73.3766 166.25 76C166.25 78.6234 168.377 80.75 171 80.75Z" fill="#994D22"/>
<path d="M171 90.25C173.623 90.25 175.75 88.1234 175.75 85.5C175.75 82.8766 173.623 80.75 171 80.75C168.377 80.75 166.25 82.8766 166.25 85.5C166.25 88.1234 168.377 90.25 171 90.25Z" fill="#994D22"/>
<path d="M171 109.25C173.623 109.25 175.75 107.123 175.75 104.5C175.75 101.877 173.623 99.75 171 99.75C168.377 99.75 166.25 101.877 166.25 104.5C166.25 107.123 168.377 109.25 171 109.25Z" fill="#994D22"/>
<path d="M171 118.75C173.623 118.75 175.75 116.623 175.75 114C175.75 111.377 173.623 109.25 171 109.25C168.377 109.25 166.25 111.377 166.25 114C166.25 116.623 168.377 118.75 171 118.75Z" fill="#994D22"/>
<path d="M171 137.75C173.623 137.75 175.75 135.623 175.75 133C175.75 130.377 173.623 128.25 171 128.25C168.377 128.25 166.25 130.377 166.25 133C166.25 135.623 168.377 137.75 171 137.75Z" fill="#994D22"/>
<path d="M171 147.25C173.623 147.25 175.75 145.123 175.75 142.5C175.75 139.877 173.623 137.75 171 137.75C168.377 137.75 166.25 139.877 166.25 142.5C166.25 145.123 168.377 147.25 171 147.25Z" fill="#994D22"/>
<path d="M171 166.25C173.623 166.25 175.75 164.123 175.75 161.5C175.75 158.877 173.623 156.75 171 156.75C168.377 156.75 166.25 158.877 166.25 161.5C166.25 164.123 168.377 166.25 171 166.25Z" fill="#994D22"/>
<path d="M171 204.25C173.623 204.25 175.75 202.123 175.75 199.5C175.75 196.877 173.623 194.75 171 194.75C168.377 194.75 166.25 196.877 166.25 199.5C166.25 202.123 168.377 204.25 171 204.25Z" fill="#994D22"/>
<path d="M171 251.75C173.623 251.75 175.75 249.623 175.75 247C175.75 244.377 173.623 242.25 171 242.25C168.377 242.25 166.25 244.377 166.25 247C166.25 249.623 168.377 251.75 171 251.75Z" fill="#994D22"/>
<path d="M171 261.25C173.623 261.25 175.75 259.123 175.75 256.5C175.75 253.877 173.623 251.75 171 251.75C168.377 251.75 166.25 253.877 166.25 256.5C166.25 259.123 168.377 261.25 171 261.25Z" fill="#994D22"/>
<path d="M180.5 14.25C183.123 14.25 185.25 12.1234 185.25 9.5C185.25 6.87665 183.123 4.75 180.5 4.75C177.877 4.75 175.75 6.87665 175.75 9.5C175.75 12.1234 177.877 14.25 180.5 14.25Z" fill="#994D22"/>
<path d="M180.5 71.25C183.123 71.25 185.25 69.1234 185.25 66.5C185.25 63.8766 183.123 61.75 180.5 61.75C177.877 61.75 175.75 63.8766 175.75 66.5C175.75 69.1234 177.877 71.25 180.5 71.25Z" fill="#994D22"/>
<path d="M180.5 109.25C183.123 109.25 185.25 107.123 185.25 104.5C185.25 101.877 183.123 99.75 180.5 99.75C177.877 99.75 175.75 101.877 175.75 104.5C175.75 107.123 177.877 109.25 180.5 109.25Z" fill="#994D22"/>
<path d="M180.5 128.25C183.123 128.25 185.25 126.123 185.25 123.5C185.25 120.877 183.123 118.75 180.5 118.75C177.877 118.75 175.75 120.877 175.75 123.5C175.75 126.123 177.877 128.25 180.5 128.25Z" fill="#994D22"/>
<path d="M180.5 137.75C183.123 137.75 185.25 135.623 185.25 133C185.25 130.377 183.123 128.25 180.5 128.25C177.877 128.25 175.75 130.377 175.75 133C175.75 135.623 177.877 137.75 180.5 137.75Z" fill="#994D22"/>
<path d="M180.5 156.75C183.123 156.75 185.25 154.623 185.25 152C185.25 149.377 183.123 147.25 180.5 147.25C177.877 147.25 175.75 149.377 175.75 152C175.75 154.623 177.877 156.75 180.5 156.75Z" fill="#994D22"/>
<path d="M180.5 166.25C183.123 166.25 185.25 164.123 185.25 161.5C185.25 158.877 183.123 156.75 180.5 156.75C177.877 156.75 175.75 158.877 175.75 161.5C175.75 164.123 177.877 166.25 180.5 166.25Z" fill="#994D22"/>
<path d="M180.5 175.75C183.123 175.75 185.25 173.623 185.25 171C185.25 168.377 183.123 166.25 180.5 166.25C177.877 166.25 175.75 168.377 175.75 171C175.75 173.623 177.877 175.75 180.5 175.75Z" fill="#994D22"/>
<path d="M180.5 185.25C183.123 185.25 185.25 183.123 185.25 180.5C185.25 177.877 183.123 175.75 180.5 175.75C177.877 175.75 175.75 177.877 175.75 180.5C175.75 183.123 177.877 185.25 180.5 185.25Z" fill="#994D22"/>
<path d="M180.5 204.25C183.123 204.25 185.25 202.123 185.25 199.5C185.25 196.877 183.123 194.75 180.5 194.75C177.877 194.75 175.75 196.877 175.75 199.5C175.75 202.123 177.877 204.25 180.5 204.25Z" fill="#994D22"/>
<path d="M180.5 223.25C183.123 223.25 185.25 221.123 185.25 218.5C185.25 215.877 183.123 213.75 180.5 213.75C177.877 213.75 175.75 215.877 175.75 218.5C175.75 221.123 177.877 223.25 180.5 223.25Z" fill="#994D22"/>
<path d="M180.5 232.75C183.123 232.75 185.25 230.623 185.25 228C185.25 225.377 183.123 223.25 180.5 223.25C177.877 223.25 175.75 225.377 175.75 228C175.75 230.623 177.877 232.75 180.5 232.75Z" fill="#994D22"/>
<path d="M180.5 242.25C183.123 242.25 185.25 240.123 185.25 237.5C185.25 234.877 183.123 232.75 180.5 232.75C177.877 232.75 175.75 234.877 175.75 237.5C175.75 240.123 177.877 242.25 180.5 242.25Z" fill="#994D22"/>
<path d="M180.5 261.25C183.123 261.25 185.25 259.123 185.25 256.5C185.25 253.877 183.123 251.75 180.5 251.75C177.877 251.75 175.75 253.877 175.75 256.5C175.75 259.123 177.877 261.25 180.5 261.25Z" fill="#994D22"/>
<path d="M190 33.25C192.623 33.25 194.75 31.1234 194.75 28.5C194.75 25.8766 192.623 23.75 190 23.75C187.377 23.75 185.25 25.8766 185.25 28.5C185.25 31.1234 187.377 33.25 190 33.25Z" fill="#994D22"/>
<path d="M190 42.75C192.623 42.75 194.75 40.6234 194.75 38C194.75 35.3766 192.623 33.25 190 33.25C187.377 33.25 185.25 35.3766 185.25 38C185.25 40.6234 187.377 42.75 190 42.75Z" fill="#994D22"/>
<path d="M190 80.75C192.623 80.75 194.75 78.6234 194.75 76C194.75 73.3766 192.623 71.25 190 71.25C187.377 71.25 185.25 73.3766 185.25 76C185.25 78.6234 187.377 80.75 190 80.75Z" fill="#994D22"/>
<path d="M190 99.75C192.623 99.75 194.75 97.6234 194.75 95C194.75 92.3766 192.623 90.25 190 90.25C187.377 90.25 185.25 92.3766 185.25 95C185.25 97.6234 187.377 99.75 190 99.75Z" fill="#994D22"/>
<path d="M190 109.25C192.623 109.25 194.75 107.123 194.75 104.5C194.75 101.877 192.623 99.75 190 99.75C187.377 99.75 185.25 101.877 185.25 104.5C185.25 107.123 187.377 109.25 190 109.25Z" fill="#994D22"/>
<path d="M190 137.75C192.623 137.75 194.75 135.623 194.75 133C194.75 130.377 192.623 128.25 190 128.25C187.377 128.25 185.25 130.377 185.25 133C185.25 135.623 187.377 137.75 190 137.75Z" fill="#994D22"/>
<path d="M190 147.25C192.623 147.25 194.75 145.123 194.75 142.5C194.75 139.877 192.623 137.75 190 137.75C187.377 137.75 185.25 139.877 185.25 142.5C185.25 145.123 187.377 147.25 190 147.25Z" fill="#994D22"/>
<path d="M190 175.75C192.623 175.75 194.75 173.623 194.75 171C194.75 168.377 192.623 166.25 190 166.25C187.377 166.25 185.25 168.377 185.25 171C185.25 173.623 187.377 175.75 190 175.75Z" fill="#994D22"/>
<path d="M190 194.75C192.623 194.75 194.75 192.623 194.75 190C194.75 187.377 192.623 185.25 190 185.25C187.377 185.25 185.25 187.377 185.25 190C185.25 192.623 187.377 194.75 190 194.75Z" fill="#994D22"/>
<path d="M190 213.75C192.623 213.75 194.75 211.623 194.75 209C194.75 206.377 192.623 204.25 190 204.25C187.377 204.25 185.25 206.377 185.25 209C185.25 211.623 187.377 213.75 190 213.75Z" fill="#994D22"/>
<path d="M190 223.25C192.623 223.25 194.75 221.123 194.75 218.5C194.75 215.877 192.623 213.75 190 213.75C187.377 213.75 185.25 215.877 185.25 218.5C185.25 221.123 187.377 223.25 190 223.25Z" fill="#994D22"/>
<path d="M190 251.75C192.623 251.75 194.75 249.623 194.75 247C194.75 244.377 192.623 242.25 190 242.25C187.377 242.25 185.25 244.377 185.25 247C185.25 249.623 187.377 251.75 190 251.75Z" fill="#994D22"/>
<path d="M190 261.25C192.623 261.25 194.75 259.123 194.75 256.5C194.75 253.877 192.623 251.75 190 251.75C187.377 251.75 185.25 253.877 185.25 256.5C185.25 259.123 187.377 261.25 190 261.25Z" fill="#994D22"/>
<path d="M190 280.25C192.623 280.25 194.75 278.123 194.75 275.5C194.75 272.877 192.623 270.75 190 270.75C187.377 270.75 185.25 272.877 185.25 275.5C185.25 278.123 187.377 280.25 190 280.25Z" fill="#994D22"/>
<path d="M199.5 23.75C202.123 23.75 204.25 21.6234 204.25 19C204.25 16.3766 202.123 14.25 199.5 14.25C196.877 14.25 194.75 16.3766 194.75 19C194.75 21.6234 196.877 23.75 199.5 23.75Z" fill="#994D22"/>
<path d="M199.5 33.25C202.123 33.25 204.25 31.1234 204.25 28.5C204.25 25.8766 202.123 23.75 199.5 23.75C196.877 23.75 194.75 25.8766 194.75 28.5C194.75 31.1234 196.877 33.25 199.5 33.25Z" fill="#994D22"/>
<path d="M199.5 61.75C202.123 61.75 204.25 59.6234 204.25 57C204.25 54.3766 202.123 52.25 199.5 52.25C196.877 52.25 194.75 54.3766 194.75 57C194.75 59.6234 196.877 61.75 199.5 61.75Z" fill="#994D22"/>
<path d="M199.5 71.25C202.123 71.25 204.25 69.1234 204.25 66.5C204.25 63.8766 202.123 61.75 199.5 61.75C196.877 61.75 194.75 63.8766 194.75 66.5C194.75 69.1234 196.877 71.25 199.5 71.25Z" fill="#994D22"/>
<path d="M199.5 80.75C202.123 80.75 204.25 78.6234 204.25 76C204.25 73.3766 202.123 71.25 199.5 71.25C196.877 71.25 194.75 73.3766 194.75 76C194.75 78.6234 196.877 80.75 199.5 80.75Z" fill="#994D22"/>
<path d="M199.5 90.25C202.123 90.25 204.25 88.1234 204.25 85.5C204.25 82.8766 202.123 80.75 199.5 80.75C196.877 80.75 194.75 82.8766 194.75 85.5C194.75 88.1234 196.877 90.25 199.5 90.25Z" fill="#994D22"/>
<path d="M199.5 118.75C202.123 118.75 204.25 116.623 204.25 114C204.25 111.377 202.123 109.25 199.5 109.25C196.877 109.25 194.75 111.377 194.75 114C194.75 116.623 196.877 118.75 199.5 118.75Z" fill="#994D22"/>
<path d="M199.5 137.75C202.123 137.75 204.25 135.623 204.25 133C204.25 130.377 202.123 128.25 199.5 128.25C196.877 128.25 194.75 130.377 194.75 133C194.75 135.623 196.877 137.75 199.5 137.75Z" fill="#994D22"/>
<path d="M199.5 147.25C202.123 147.25 204.25 145.123 204.25 142.5C204.25 139.877 202.123 137.75 199.5 137.75C196.877 137.75 194.75 139.877 194.75 142.5C194.75 145.123 196.877 147.25 199.5 147.25Z" fill="#994D22"/>
<path d="M199.5 166.25C202.123 166.25 204.25 164.123 204.25 161.5C204.25 158.877 202.123 156.75 199.5 156.75C196.877 156.75 194.75 158.877 194.75 161.5C194.75 164.123 196.877 166.25 199.5 166.25Z" fill="#994D22"/>
<path d="M199.5 175.75C202.123 175.75 204.25 173.623 204.25 171C204.25 168.377 202.123 166.25 199.5 166.25C196.877 166.25 194.75 168.377 194.75 171C194.75 173.623 196.877 175.75 199.5 175.75Z" fill="#994D22"/>
<path d="M199.5 204.25C202.123 204.25 204.25 202.123 204.25 199.5C204.25 196.877 202.123 194.75 199.5 194.75C196.877 194.75 194.75 196.877 194.75 199.5C194.75 202.123 196.877 204.25 199.5 204.25Z" fill="#994D22"/>
<path d="M199.5 213.75C202.123 213.75 204.25 211.623 204.25 209C204.25 206.377 202.123 204.25 199.5 204.25C196.877 204.25 194.75 206.377 194.75 209C194.75 211.623 196.877 213.75 199.5 213.75Z" fill="#994D22"/>
<path d="M199.5 223.25C202.123 223.25 204.25 221.123 204.25 218.5C204.25 215.877 202.123 213.75 199.5 213.75C196.877 213.75 194.75 215.877 194.75 218.5C194.75 221.123 196.877 223.25 199.5 223.25Z" fill="#994D22"/>
<path d="M199.5 232.75C202.123 232.75 204.25 230.623 204.25 228C204.25 225.377 202.123 223.25 199.5 223.25C196.877 223.25 194.75 225.377 194.75 228C194.75 230.623 196.877 232.75 199.5 232.75Z" fill="#994D22"/>
<path d="M199.5 242.25C202.123 242.25 204.25 240.123 204.25 237.5C204.25 234.877 202.123 232.75 199.5 232.75C196.877 232.75 194.75 234.877 194.75 237.5C194.75 240.123 196.877 242.25 199.5 242.25Z" fill="#994D22"/>
<path d="M209 90.25C211.623 90.25 213.75 88.1234 213.75 85.5C213.75 82.8766 211.623 80.75 209 80.75C206.377 80.75 204.25 82.8766 204.25 85.5C204.25 88.1234 206.377 90.25 209 90.25Z" fill="#994D22"/>
<path d="M209 99.75C211.623 99.75 213.75 97.6234 213.75 95C213.75 92.3766 211.623 90.25 209 90.25C206.377 90.25 204.25 92.3766 204.25 95C204.25 97.6234 206.377 99.75 209 99.75Z" fill="#994D22"/>
<path d="M209 109.25C211.623 109.25 213.75 107.123 213.75 104.5C213.75 101.877 211.623 99.75 209 99.75C206.377 99.75 204.25 101.877 204.25 104.5C204.25 107.123 206.377 109.25 209 109.25Z" fill="#994D22"/>
<path d="M209 128.25C211.623 128.25 213.75 126.123 213.75 123.5C213.75 120.877 211.623 118.75 209 118.75C206.377 118.75 204.25 120.877 204.25 123.5C204.25 126.123 206.377 128.25 209 128.25Z" fill="#994D22"/>
<path d="M209 166.25C211.623 166.25 213.75 164.123 213.75 161.5C213.75 158.877 211.623 156.75 209 156.75C206.377 156.75 204.25 158.877 204.25 161.5C204.25 164.123 206.377 166.25 209 166.25Z" fill="#994D22"/>
<path d="M209 185.25C211.623 185.25 213.75 183.123 213.75 180.5C213.75 177.877 211.623 175.75 209 175.75C206.377 175.75 204.25 177.877 204.25 180.5C204.25 183.123 206.377 185.25 209 185.25Z" fill="#994D22"/>
<path d="M209 204.25C211.623 204.25 213.75 202.123 213.75 199.5C213.75 196.877 211.623 194.75 209 194.75C206.377 194.75 204.25 196.877 204.25 199.5C204.25 202.123 206.377 204.25 209 204.25Z" fill="#994D22"/>
<path d="M209 242.25C211.623 242.25 213.75 240.123 213.75 237.5C213.75 234.877 211.623 232.75 209 232.75C206.377 232.75 204.25 234.877 204.25 237.5C204.25 240.123 206.377 242.25 209 242.25Z" fill="#994D22"/>
<path d="M209 251.75C211.623 251.75 213.75 249.623 213.75 247C213.75 244.377 211.623 242.25 209 242.25C206.377 242.25 204.25 244.377 204.25 247C204.25 249.623 206.377 251.75 209 251.75Z" fill="#994D22"/>
<path d="M209 270.75C211.623 270.75 213.75 268.623 213.75 266C213.75 263.377 211.623 261.25 209 261.25C206.377 261.25 204.25 263.377 204.25 266C204.25 268.623 206.377 270.75 209 270.75Z" fill="#994D22"/>
<path d="M209 280.25C211.623 280.25 213.75 278.123 213.75 275.5C213.75 272.877 211.623 270.75 209 270.75C206.377 270.75 204.25 272.877 204.25 275.5C204.25 278.123 206.377 280.25 209 280.25Z" fill="#994D22"/>
<path d="M218.5 118.75C221.123 118.75 223.25 116.623 223.25 114C223.25 111.377 221.123 109.25 218.5 109.25C215.877 109.25 213.75 111.377 213.75 114C213.75 116.623 215.877 118.75 218.5 118.75Z" fill="#994D22"/>
<path d="M218.5 128.25C221.123 128.25 223.25 126.123 223.25 123.5C223.25 120.877 221.123 118.75 218.5 118.75C215.877 118.75 213.75 120.877 213.75 123.5C213.75 126.123 215.877 128.25 218.5 128.25Z" fill="#994D22"/>
<path d="M218.5 137.75C221.123 137.75 223.25 135.623 223.25 133C223.25 130.377 221.123 128.25 218.5 128.25C215.877 128.25 213.75 130.377 213.75 133C213.75 135.623 215.877 137.75 218.5 137.75Z" fill="#994D22"/>
<path d="M218.5 166.25C221.123 166.25 223.25 164.123 223.25 161.5C223.25 158.877 221.123 156.75 218.5 156.75C215.877 156.75 213.75 158.877 213.75 161.5C213.75 164.123 215.877 166.25 218.5 166.25Z" fill="#994D22"/>
<path d="M218.5 175.75C221.123 175.75 223.25 173.623 223.25 171C223.25 168.377 221.123 166.25 218.5 166.25C215.877 166.25 213.75 168.377 213.75 171C213.75 173.623 215.877 175.75 218.5 175.75Z" fill="#994D22"/>
<path d="M218.5 194.75C221.123 194.75 223.25 192.623 223.25 190C223.25 187.377 221.123 185.25 218.5 185.25C215.877 185.25 213.75 187.377 213.75 190C213.75 192.623 215.877 194.75 218.5 194.75Z" fill="#994D22"/>
<path d="M218.5 204.25C221.123 204.25 223.25 202.123 223.25 199.5C223.25 196.877 221.123 194.75 218.5 194.75C215.877 194.75 213.75 196.877 213.75 199.5C213.75 202.123 215.877 204.25 218.5 204.25Z" fill="#994D22"/>
<path d="M218.5 223.25C221.123 223.25 223.25 221.123 223.25 218.5C223.25 215.877 221.123 213.75 218.5 213.75C215.877 213.75 213.75 215.877 213.75 218.5C213.75 221.123 215.877 223.25 218.5 223.25Z" fill="#994D22"/>
<path d="M218.5 242.25C221.123 242.25 223.25 240.123 223.25 237.5C223.25 234.877 221.123 232.75 218.5 232.75C215.877 232.75 213.75 234.877 213.75 237.5C213.75 240.123 215.877 242.25 218.5 242.25Z" fill="#994D22"/>
<path d="M218.5 261.25C221.123 261.25 223.25 259.123 223.25 256.5C223.25 253.877 221.123 251.75 218.5 251.75C215.877 251.75 213.75 253.877 213.75 256.5C213.75 259.123 215.877 261.25 218.5 261.25Z" fill="#994D22"/>
<path d="M218.5 270.75C221.123 270.75 223.25 268.623 223.25 266C223.25 263.377 221.123 261.25 218.5 261.25C215.877 261.25 213.75 263.377 213.75 266C213.75 268.623 215.877 270.75 218.5 270.75Z" fill="#994D22"/>
<path d="M228 90.25C230.623 90.25 232.75 88.1234 232.75 85.5C232.75 82.8766 230.623 80.75 228 80.75C225.377 80.75 223.25 82.8766 223.25 85.5C223.25 88.1234 225.377 90.25 228 90.25Z" fill="#994D22"/>
<path d="M228 99.75C230.623 99.75 232.75 97.6234 232.75 95C232.75 92.3766 230.623 90.25 228 90.25C225.377 90.25 223.25 92.3766 223.25 95C223.25 97.6234 225.377 99.75 228 99.75Z" fill="#994D22"/>
<path d="M228 109.25C230.623 109.25 232.75 107.123 232.75 104.5C232.75 101.877 230.623 99.75 228 99.75C225.377 99.75 223.25 101.877 223.25 104.5C223.25 107.123 225.377 109.25 228 109.25Z" fill="#994D22"/>
<path d="M228 128.25C230.623 128.25 232.75 126.123 232.75 123.5C232.75 120.877 230.623 118.75 228 118.75C225.377 118.75 223.25 120.877 223.25 123.5C223.25 126.123 225.377 128.25 228 128.25Z" fill="#994D22"/>
<path d="M228 137.75C230.623 137.75 232.75 135.623 232.75 133C232.75 130.377 230.623 128.25 228 128.25C225.377 128.25 223.25 130.377 223.25 133C223.25 135.623 225.377 137.75 228 137.75Z" fill="#994D22"/>
<path d="M228 147.25C230.623 147.25 232.75 145.123 232.75 142.5C232.75 139.877 230.623 137.75 228 137.75C225.377 137.75 223.25 139.877 223.25 142.5C223.25 145.123 225.377 147.25 228 147.25Z" fill="#994D22"/>
<path d="M228 156.75C230.623 156.75 232.75 154.623 232.75 152C232.75 149.377 230.623 147.25 228 147.25C225.377 147.25 223.25 149.377 223.25 152C223.25 154.623 225.377 156.75 228 156.75Z" fill="#994D22"/>
<path d="M228 166.25C230.623 166.25 232.75 164.123 232.75 161.5C232.75 158.877 230.623 156.75 228 156.75C225.377 156.75 223.25 158.877 223.25 161.5C223.25 164.123 225.377 166.25 228 166.25Z" fill="#994D22"/>
<path d="M228 185.25C230.623 185.25 232.75 183.123 232.75 180.5C232.75 177.877 230.623 175.75 228 175.75C225.377 175.75 223.25 177.877 223.25 180.5C223.25 183.123 225.377 185.25 228 185.25Z" fill="#994D22"/>
<path d="M228 204.25C230.623 204.25 232.75 202.123 232.75 199.5C232.75 196.877 230.623 194.75 228 194.75C225.377 194.75 223.25 196.877 223.25 199.5C223.25 202.123 225.377 204.25 228 204.25Z" fill="#994D22"/>
<path d="M228 242.25C230.623 242.25 232.75 240.123 232.75 237.5C232.75 234.877 230.623 232.75 228 232.75C225.377 232.75 223.25 234.877 223.25 237.5C223.25 240.123 225.377 242.25 228 242.25Z" fill="#994D22"/>
<path d="M228 270.75C230.623 270.75 232.75 268.623 232.75 266C232.75 263.377 230.623 261.25 228 261.25C225.377 261.25 223.25 263.377 223.25 266C223.25 268.623 225.377 270.75 228 270.75Z" fill="#994D22"/>
<path d="M237.5 99.75C240.123 99.75 242.25 97.6234 242.25 95C242.25 92.3766 240.123 90.25 237.5 90.25C234.877 90.25 232.75 92.3766 232.75 95C232.75 97.6234 234.877 99.75 237.5 99.75Z" fill="#994D22"/>
<path d="M237.5 109.25C240.123 109.25 242.25 107.123 242.25 104.5C242.25 101.877 240.123 99.75 237.5 99.75C234.877 99.75 232.75 101.877 232.75 104.5C232.75 107.123 234.877 109.25 237.5 109.25Z" fill="#994D22"/>
<path d="M237.5 118.75C240.123 118.75 242.25 116.623 242.25 114C242.25 111.377 240.123 109.25 237.5 109.25C234.877 109.25 232.75 111.377 232.75 114C232.75 116.623 234.877 118.75 237.5 118.75Z" fill="#994D22"/>
<path d="M237.5 128.25C240.123 128.25 242.25 126.123 242.25 123.5C242.25 120.877 240.123 118.75 237.5 118.75C234.877 118.75 232.75 120.877 232.75 123.5C232.75 126.123 234.877 128.25 237.5 128.25Z" fill="#994D22"/>
<path d="M237.5 137.75C240.123 137.75 242.25 135.623 242.25 133C242.25 130.377 240.123 128.25 237.5 128.25C234.877 128.25 232.75 130.377 232.75 133C232.75 135.623 234.877 137.75 237.5 137.75Z" fill="#994D22"/>
<path d="M237.5 156.75C240.123 156.75 242.25 154.623 242.25 152C242.25 149.377 240.123 147.25 237.5 147.25C234.877 147.25 232.75 149.377 232.75 152C232.75 154.623 234.877 156.75 237.5 156.75Z" fill="#994D22"/>
<path d="M237.5 185.25C240.123 185.25 242.25 183.123 242.25 180.5C242.25 177.877 240.123 175.75 237.5 175.75C234.877 175.75 232.75 177.877 232.75 180.5C232.75 183.123 234.877 185.25 237.5 185.25Z" fill="#994D22"/>
<path d="M237.5 204.25C240.123 204.25 242.25 202.123 242.25 199.5C242.25 196.877 240.123 194.75 237.5 194.75C234.877 194.75 232.75 196.877 232.75 199.5C232.75 202.123 234.877 204.25 237.5 204.25Z" fill="#994D22"/>
<path d="M237.5 213.75C240.123 213.75 242.25 211.623 242.25 209C242.25 206.377 240.123 204.25 237.5 204.25C234.877 204.25 232.75 206.377 232.75 209C232.75 211.623 234.877 213.75 237.5 213.75Z" fill="#994D22"/>
<path d="M237.5 223.25C240.123 223.25 242.25 221.123 242.25 218.5C242.25 215.877 240.123 213.75 237.5 213.75C234.877 213.75 232.75 215.877 232.75 218.5C232.75 221.123 234.877 223.25 237.5 223.25Z" fill="#994D22"/>
<path d="M237.5 232.75C240.123 232.75 242.25 230.623 242.25 228C242.25 225.377 240.123 223.25 237.5 223.25C234.877 223.25 232.75 225.377 232.75 228C232.75 230.623 234.877 232.75 237.5 232.75Z" fill="#994D22"/>
<path d="M237.5 242.25C240.123 242.25 242.25 240.123 242.25 237.5C242.25 234.877 240.123 232.75 237.5 232.75C234.877 232.75 232.75 234.877 232.75 237.5C232.75 240.123 234.877 242.25 237.5 242.25Z" fill="#994D22"/>
<path d="M237.5 251.75C240.123 251.75 242.25 249.623 242.25 247C242.25 244.377 240.123 242.25 237.5 242.25C234.877 242.25 232.75 244.377 232.75 247C232.75 249.623 234.877 251.75 237.5 251.75Z" fill="#994D22"/>
<path d="M237.5 261.25C240.123 261.25 242.25 259.123 242.25 256.5C242.25 253.877 240.123 251.75 237.5 251.75C234.877 251.75 232.75 253.877 232.75 256.5C232.75 259.123 234.877 261.25 237.5 261.25Z" fill="#994D22"/>
<path d="M237.5 280.25C240.123 280.25 242.25 278.123 242.25 275.5C242.25 272.877 240.123 270.75 237.5 270.75C234.877 270.75 232.75 272.877 232.75 275.5C232.75 278.123 234.877 280.25 237.5 280.25Z" fill="#994D22"/>
<path d="M247 90.25C249.623 90.25 251.75 88.1234 251.75 85.5C251.75 82.8766 249.623 80.75 247 80.75C244.377 80.75 242.25 82.8766 242.25 85.5C242.25 88.1234 244.377 90.25 247 90.25Z" fill="#994D22"/>
<path d="M247 128.25C249.623 128.25 251.75 126.123 251.75 123.5C251.75 120.877 249.623 118.75 247 118.75C244.377 118.75 242.25 120.877 242.25 123.5C242.25 126.123 244.377 128.25 247 128.25Z" fill="#994D22"/>
<path d="M247 166.25C249.623 166.25 251.75 164.123 251.75 161.5C251.75 158.877 249.623 156.75 247 156.75C244.377 156.75 242.25 158.877 242.25 161.5C242.25 164.123 244.377 166.25 247 166.25Z" fill="#994D22"/>
<path d="M247 185.25C249.623 185.25 251.75 183.123 251.75 180.5C251.75 177.877 249.623 175.75 247 175.75C244.377 175.75 242.25 177.877 242.25 180.5C242.25 183.123 244.377 185.25 247 185.25Z" fill="#994D22"/>
<path d="M247 194.75C249.623 194.75 251.75 192.623 251.75 190C251.75 187.377 249.623 185.25 247 185.25C244.377 185.25 242.25 187.377 242.25 190C242.25 192.623 244.377 194.75 247 194.75Z" fill="#994D22"/>
<path d="M247 242.25C249.623 242.25 251.75 240.123 251.75 237.5C251.75 234.877 249.623 232.75 247 232.75C244.377 232.75 242.25 234.877 242.25 237.5C242.25 240.123 244.377 242.25 247 242.25Z" fill="#994D22"/>
<path d="M247 251.75C249.623 251.75 251.75 249.623 251.75 247C251.75 244.377 249.623 242.25 247 242.25C244.377 242.25 242.25 244.377 242.25 247C242.25 249.623 244.377 251.75 247 251.75Z" fill="#994D22"/>
<path d="M247 261.25C249.623 261.25 251.75 259.123 251.75 256.5C251.75 253.877 249.623 251.75 247 251.75C244.377 251.75 242.25 253.877 242.25 256.5C242.25 259.123 244.377 261.25 247 261.25Z" fill="#994D22"/>
<path d="M247 270.75C249.623 270.75 251.75 268.623 251.75 266C251.75 263.377 249.623 261.25 247 261.25C244.377 261.25 242.25 263.377 242.25 266C242.25 268.623 244.377 270.75 247 270.75Z" fill="#994D22"/>
<path d="M256.5 90.25C259.123 90.25 261.25 88.1234 261.25 85.5C261.25 82.8766 259.123 80.75 256.5 80.75C253.877 80.75 251.75 82.8766 251.75 85.5C251.75 88.1234 253.877 90.25 256.5 90.25Z" fill="#994D22"/>
<path d="M256.5 99.75C259.123 99.75 261.25 97.6234 261.25 95C261.25 92.3766 259.123 90.25 256.5 90.25C253.877 90.25 251.75 92.3766 251.75 95C251.75 97.6234 253.877 99.75 256.5 99.75Z" fill="#994D22"/>
<path d="M256.5 109.25C259.123 109.25 261.25 107.123 261.25 104.5C261.25 101.877 259.123 99.75 256.5 99.75C253.877 99.75 251.75 101.877 251.75 104.5C251.75 107.123 253.877 109.25 256.5 109.25Z" fill="#994D22"/>
<path d="M256.5 118.75C259.123 118.75 261.25 116.623 261.25 114C261.25 111.377 259.123 109.25 256.5 109.25C253.877 109.25 251.75 111.377 251.75 114C251.75 116.623 253.877 118.75 256.5 118.75Z" fill="#994D22"/>
<path d="M256.5 147.25C259.123 147.25 261.25 145.123 261.25 142.5C261.25 139.877 259.123 137.75 256.5 137.75C253.877 137.75 251.75 139.877 251.75 142.5C251.75 145.123 253.877 147.25 256.5 147.25Z" fill="#994D22"/>
<path d="M256.5 156.75C259.123 156.75 261.25 154.623 261.25 152C261.25 149.377 259.123 147.25 256.5 147.25C253.877 147.25 251.75 149.377 251.75 152C251.75 154.623 253.877 156.75 256.5 156.75Z" fill="#994D22"/>
<path d="M256.5 166.25C259.123 166.25 261.25 164.123 261.25 161.5C261.25 158.877 259.123 156.75 256.5 156.75C253.877 156.75 251.75 158.877 251.75 161.5C251.75 164.123 253.877 166.25 256.5 166.25Z" fill="#994D22"/>
<path d="M256.5 175.75C259.123 175.75 261.25 173.623 261.25 171C261.25 168.377 259.123 166.25 256.5 166.25C253.877 166.25 251.75 168.377 251.75 171C251.75 173.623 253.877 175.75 256.5 175.75Z" fill="#994D22"/>
<path d="M256.5 185.25C259.123 185.25 261.25 183.123 261.25 180.5C261.25 177.877 259.123 175.75 256.5 175.75C253.877 175.75 251.75 177.877 251.75 180.5C251.75 183.123 253.877 185.25 256.5 185.25Z" fill="#994D22"/>
<path d="M256.5 204.25C259.123 204.25 261.25 202.123 261.25 199.5C261.25 196.877 259.123 194.75 256.5 194.75C253.877 194.75 251.75 196.877 251.75 199.5C251.75 202.123 253.877 204.25 256.5 204.25Z" fill="#994D22"/>
<path d="M256.5 232.75C259.123 232.75 261.25 230.623 261.25 228C261.25 225.377 259.123 223.25 256.5 223.25C253.877 223.25 251.75 225.377 251.75 228C251.75 230.623 253.877 232.75 256.5 232.75Z" fill="#994D22"/>
<path d="M256.5 251.75C259.123 251.75 261.25 249.623 261.25 247C261.25 244.377 259.123 242.25 256.5 242.25C253.877 242.25 251.75 244.377 251.75 247C251.75 249.623 253.877 251.75 256.5 251.75Z" fill="#994D22"/>
<path d="M256.5 261.25C259.123 261.25 261.25 259.123 261.25 256.5C261.25 253.877 259.123 251.75 256.5 251.75C253.877 251.75 251.75 253.877 251.75 256.5C251.75 259.123 253.877 261.25 256.5 261.25Z" fill="#994D22"/>
<path d="M256.5 280.25C259.123 280.25 261.25 278.123 261.25 275.5C261.25 272.877 259.123 270.75 256.5 270.75C253.877 270.75 251.75 272.877 251.75 275.5C251.75 278.123 253.877 280.25 256.5 280.25Z" fill="#994D22"/>
<path d="M266 90.25C268.623 90.25 270.75 88.1234 270.75 85.5C270.75 82.8766 268.623 80.75 266 80.75C263.377 80.75 261.25 82.8766 261.25 85.5C261.25 88.1234 263.377 90.25 266 90.25Z" fill="#994D22"/>
<path d="M266 99.75C268.623 99.75 270.75 97.6234 270.75 95C270.75 92.3766 268.623 90.25 266 90.25C263.377 90.25 261.25 92.3766 261.25 95C261.25 97.6234 263.377 99.75 266 99.75Z" fill="#994D22"/>
<path d="M266 109.25C268.623 109.25 270.75 107.123 270.75 104.5C270.75 101.877 268.623 99.75 266 99.75C263.377 99.75 261.25 101.877 261.25 104.5C261.25 107.123 263.377 109.25 266 109.25Z" fill="#994D22"/>
<path d="M266 147.25C268.623 147.25 270.75 145.123 270.75 142.5C270.75 139.877 268.623 137.75 266 137.75C263.377 137.75 261.25 139.877 261.25 142.5C261.25 145.123 263.377 147.25 266 147.25Z" fill="#994D22"/>
<path d="M266 166.25C268.623 166.25 270.75 164.123 270.75 161.5C270.75 158.877 268.623 156.75 266 156.75C263.377 156.75 261.25 158.877 261.25 161.5C261.25 164.123 263.377 166.25 266 166.25Z" fill="#994D22"/>
<path d="M266 185.25C268.623 185.25 270.75 183.123 270.75 180.5C270.75 177.877 268.623 175.75 266 175.75C263.377 175.75 261.25 177.877 261.25 180.5C261.25 183.123 263.377 185.25 266 185.25Z" fill="#994D22"/>
<path d="M266 204.25C268.623 204.25 270.75 202.123 270.75 199.5C270.75 196.877 268.623 194.75 266 194.75C263.377 194.75 261.25 196.877 261.25 199.5C261.25 202.123 263.377 204.25 266 204.25Z" fill="#994D22"/>
<path d="M266 213.75C268.623 213.75 270.75 211.623 270.75 209C270.75 206.377 268.623 204.25 266 204.25C263.377 204.25 261.25 206.377 261.25 209C261.25 211.623 263.377 213.75 266 213.75Z" fill="#994D22"/>
<path d="M266 223.25C268.623 223.25 270.75 221.123 270.75 218.5C270.75 215.877 268.623 213.75 266 213.75C263.377 213.75 261.25 215.877 261.25 218.5C261.25 221.123 263.377 223.25 266 223.25Z" fill="#994D22"/>
<path d="M266 242.25C268.623 242.25 270.75 240.123 270.75 237.5C270.75 234.877 268.623 232.75 266 232.75C263.377 232.75 261.25 234.877 261.25 237.5C261.25 240.123 263.377 242.25 266 242.25Z" fill="#994D22"/>
<path d="M266 251.75C268.623 251.75 270.75 249.623 270.75 247C270.75 244.377 268.623 242.25 266 242.25C263.377 242.25 261.25 244.377 261.25 247C261.25 249.623 263.377 251.75 266 251.75Z" fill="#994D22"/>
<path d="M266 270.75C268.623 270.75 270.75 268.623 270.75 266C270.75 263.377 268.623 261.25 266 261.25C263.377 261.25 261.25 263.377 261.25 266C261.25 268.623 263.377 270.75 266 270.75Z" fill="#994D22"/>
<path d="M275.5 99.75C278.123 99.75 280.25 97.6234 280.25 95C280.25 92.3766 278.123 90.25 275.5 90.25C272.877 90.25 270.75 92.3766 270.75 95C270.75 97.6234 272.877 99.75 275.5 99.75Z" fill="#994D22"/>
<path d="M275.5 109.25C278.123 109.25 280.25 107.123 280.25 104.5C280.25 101.877 278.123 99.75 275.5 99.75C272.877 99.75 270.75 101.877 270.75 104.5C270.75 107.123 272.877 109.25 275.5 109.25Z" fill="#994D22"/>
<path d="M275.5 118.75C278.123 118.75 280.25 116.623 280.25 114C280.25 111.377 278.123 109.25 275.5 109.25C272.877 109.25 270.75 111.377 270.75 114C270.75 116.623 272.877 118.75 275.5 118.75Z" fill="#994D22"/>
<path d="M275.5 128.25C278.123 128.25 280.25 126.123 280.25 123.5C280.25 120.877 278.123 118.75 275.5 118.75C272.877 118.75 270.75 120.877 270.75 123.5C270.75 126.123 272.877 128.25 275.5 128.25Z" fill="#994D22"/>
<path d="M275.5 156.75C278.123 156.75 280.25 154.623 280.25 152C280.25 149.377 278.123 147.25 275.5 147.25C272.877 147.25 270.75 149.377 270.75 152C270.75 154.623 272.877 156.75 275.5 156.75Z" fill="#994D22"/>
<path d="M275.5 185.25C278.123 185.25 280.25 183.123 280.25 180.5C280.25 177.877 278.123 175.75 275.5 175.75C272.877 175.75 270.75 177.877 270.75 180.5C270.75 183.123 272.877 185.25 275.5 185.25Z" fill="#994D22"/>
<path d="M275.5 194.75C278.123 194.75 280.25 192.623 280.25 190C280.25 187.377 278.123 185.25 275.5 185.25C272.877 185.25 270.75 187.377 270.75 190C270.75 192.623 272.877 194.75 275.5 194.75Z" fill="#994D22"/>
<path d="M275.5 204.25C278.123 204.25 280.25 202.123 280.25 199.5C280.25 196.877 278.123 194.75 275.5 194.75C272.877 194.75 270.75 196.877 270.75 199.5C270.75 202.123 272.877 204.25 275.5 204.25Z" fill="#994D22"/>
<path d="M275.5 213.75C278.123 213.75 280.25 211.623 280.25 209C280.25 206.377 278.123 204.25 275.5 204.25C272.877 204.25 270.75 206.377 270.75 209C270.75 211.623 272.877 213.75 275.5 213.75Z" fill="#994D22"/>
<path d="M275.5 223.25C278.123 223.25 280.25 221.123 280.25 218.5C280.25 215.877 278.123 213.75 275.5 213.75C272.877 213.75 270.75 215.877 270.75 218.5C270.75 221.123 272.877 223.25 275.5 223.25Z" fill="#994D22"/>
<path d="M275.5 232.75C278.123 232.75 280.25 230.623 280.25 228C280.25 225.377 278.123 223.25 275.5 223.25C272.877 223.25 270.75 225.377 270.75 228C270.75 230.623 272.877 232.75 275.5 232.75Z" fill="#994D22"/>
<path d="M275.5 251.75C278.123 251.75 280.25 249.623 280.25 247C280.25 244.377 278.123 242.25 275.5 242.25C272.877 242.25 270.75 244.377 270.75 247C270.75 249.623 272.877 251.75 275.5 251.75Z" fill="#994D22"/>
<path d="M275.5 261.25C278.123 261.25 280.25 259.123 280.25 256.5C280.25 253.877 278.123 251.75 275.5 251.75C272.877 251.75 270.75 253.877 270.75 256.5C270.75 259.123 272.877 261.25 275.5 261.25Z" fill="#994D22"/>
<path d="M275.5 270.75C278.123 270.75 280.25 268.623 280.25 266C280.25 263.377 278.123 261.25 275.5 261.25C272.877 261.25 270.75 263.377 270.75 266C270.75 268.623 272.877 270.75 275.5 270.75Z" fill="#994D22"/>
<path d="M4.75 4.75V71.25H71.25V4.75H4.75ZM14.25 14.25H61.75V61.75H14.25V14.25Z" fill="#994D22"/>
<path d="M52.25 23.75H23.75V52.25H52.25V23.75Z" fill="#994D22"/>
<path d="M280.25 4.75L213.75 4.75V71.25H280.25V4.75ZM270.75 14.25V61.75H223.25V14.25L270.75 14.25Z" fill="#994D22"/>
<path d="M261.25 52.25V23.75H232.75V52.25H261.25Z" fill="#994D22"/>
<path d="M4.75 280.25H71.25V213.75H4.75L4.75 280.25ZM14.25 270.75L14.25 223.25H61.75V270.75H14.25Z" fill="#994D22"/>
<path d="M23.75 232.75V261.25H52.25V232.75H23.75Z" fill="#994D22"/>
</svg>
