<svg width="683" height="539" viewBox="0 0 683 539" fill="none" xmlns="http://www.w3.org/2000/svg">
<mask id="mask0_301_13" style="mask-type:luminance" maskUnits="userSpaceOnUse" x="0" y="0" width="683" height="539">
<path d="M0 1.04904e-05H683V539H0V1.04904e-05Z" fill="white"/>
</mask>
<g mask="url(#mask0_301_13)">
<path d="M672.259 472.966C672.458 472.966 672.653 472.98 672.851 472.983V67.3583C672.653 67.3609 672.458 67.375 672.259 67.375C645.936 67.375 624.597 43.2132 624.597 13.408C624.597 12.0531 624.656 10.715 624.743 9.38561H60.2051C60.292 10.715 60.3507 12.0531 60.3507 13.408C60.3507 43.2132 39.0115 67.375 12.6887 67.375C12.391 67.375 12.0974 67.3556 11.8008 67.3496V472.975C11.9 472.974 11.9975 472.966 12.0967 472.966C38.4195 472.966 59.7588 497.128 59.7588 526.933C59.7588 527.833 59.737 528.726 59.6988 529.615H624.657C624.618 528.726 624.597 527.833 624.597 526.933C624.597 497.128 645.936 472.966 672.259 472.966Z" stroke="#994D22" stroke-width="4" stroke-miterlimit="10"/>
<path d="M658.279 511.849H26.3721V27.1511H658.279V511.849Z" stroke="#994D22" stroke-width="4" stroke-miterlimit="10"/>
</g>
</svg>
